<?xml version="1.0" encoding="utf-8"?>
<!-- Generator: Adobe Illustrator 24.0.0, SVG Export Plug-In . SVG Version: 6.00 Build 0)  -->
<svg version="1.1" id="Layer_1" xmlns="http://www.w3.org/2000/svg" xmlns:xlink="http://www.w3.org/1999/xlink" x="0px" y="0px"
	 viewBox="0 0 200 200" style="enable-background:new 0 0 200 200;" xml:space="preserve">
<style type="text/css">
	.st0{fill:#FED136;}
	.st1{fill:#FFFFFF;stroke:#000000;}
	.st2{fill:#0A7100;}
	.st3{fill:none;stroke:#FFFFFF;stroke-width:12;}
	.st4{fill:#0A3500;}
	.st5{fill:#0A3F00;}
	.st6{fill:#0AA600;}
	.st7{fill:#0A4F00;}
	.st8{fill:#0AD329;}
</style>
<image style="overflow:visible;" width="200" height="200" xlink:href="excel.png"  transform="matrix(1 0 0 1 -325 9)">
</image>
<circle class="st0" cx="100" cy="101" r="94"/>
<path class="st1" d="M158,75.9c0,29,0,58.1,0,87.1H52.3V39c28.7,0,86,0,86,0"/>
<polygon class="st1" points="124,70.5 157.8,75.1 137,39 "/>
<path class="st2" d="M83.9,144.7H43.3c-3.3,0-5.9-2.7-5.9-5.9v-50c0-3.3,2.7-5.9,5.9-5.9h40.6c3.3,0,5.9,2.7,5.9,5.9v50
	C89.8,142,87.2,144.7,83.9,144.7z"/>
<path class="st3" d="M80.5,133.6C69.2,120.4,58,107.1,46.7,93.9"/>
<path class="st3" d="M46.7,133.6c11.3-13.3,22.5-26.5,33.8-39.8"/>
<rect x="97.7" y="94.6" class="st2" width="18.4" height="8.8"/>
<rect x="118.4" y="119.7" class="st4" width="18.4" height="8.8"/>
<rect x="97.7" y="119.7" class="st5" width="18.4" height="8.8"/>
<rect x="118.4" y="107.2" class="st6" width="18.4" height="8.8"/>
<rect x="97.7" y="107.2" class="st7" width="18.4" height="8.8"/>
<rect x="118.4" y="94.6" class="st8" width="18.4" height="8.8"/>
</svg>
