<?xml version="1.0" encoding="utf-8"?>
<!-- Generator: Adobe Illustrator 24.0.0, SVG Export Plug-In . SVG Version: 6.00 Build 0)  -->
<svg version="1.1" id="Layer_1" xmlns="http://www.w3.org/2000/svg" xmlns:xlink="http://www.w3.org/1999/xlink" x="0px" y="0px"
	 viewBox="0 0 228.7 39.1" style="enable-background:new 0 0 228.7 39.1;" xml:space="preserve">
<style type="text/css">
	.st0{enable-background:new    ;}
	.st1{fill:#FED136;}
	.st2{fill:none;stroke:#FFE485;stroke-miterlimit:10;}
	.st3{fill:#FFE485;}
</style>
<g class="st0">
	<path class="st1" d="M26.1,11c0,0.1,0,0.2-0.1,0.3c0,0.1-0.1,0.1-0.1,0.2s-0.1,0.2-0.2,0.3s-0.1,0.3-0.2,0.6
		c-0.1,0.3-0.1,0.5-0.2,0.7c-0.1,0.2-0.1,0.4-0.1,0.5c0,0.2-0.1,0.3-0.1,0.5c0,0.2,0,0.4,0,0.6c0,0.4,0,0.8,0,1.2
		c0,0.4,0,0.8-0.1,1.3c0,0.4-0.1,0.9-0.1,1.4c-0.1,0.5-0.1,1-0.2,1.5c-0.1,0.8-0.2,1.6-0.3,2.5c-0.1,0.9-0.1,1.8-0.1,2.7
		c0,0.2,0,0.5,0,0.9s0,0.7,0,1.1s0,0.8,0.1,1.1c0,0.4,0.1,0.8,0.1,1.1c0,0,0.1,0.1,0.1,0.1c0,0,0.1,0,0.1,0.1
		c0.3,0.2,0.6,0.4,0.7,0.5c0.1,0.2,0.2,0.4,0.2,0.6c0,0.2-0.1,0.4-0.2,0.6c-0.1,0.2-0.3,0.4-0.5,0.6c-0.2,0.2-0.4,0.3-0.7,0.5
		c-0.3,0.1-0.5,0.2-0.8,0.2c-0.5,0-1-0.2-1.3-0.5c-0.3-0.3-0.6-0.8-0.8-1.3c-0.2-0.5-0.3-1.1-0.4-1.7c-0.1-0.6-0.1-1.3-0.1-1.9v-0.5
		c0-0.3,0-0.6,0.1-1.2c0-0.5,0.1-1.1,0.2-1.8c0.1-0.7,0.2-1.4,0.3-2.1c0.1-0.7,0.2-1.5,0.3-2.2c0.1-0.7,0.2-1.4,0.3-2
		s0.2-1.1,0.3-1.5c-0.1,0.1-0.3,0.3-0.5,0.6c-0.2,0.3-0.4,0.5-0.7,0.9c-0.2,0.3-0.5,0.7-0.8,1c-0.3,0.4-0.5,0.7-0.8,1
		c-0.3,0.3-0.5,0.7-0.7,1c-0.2,0.3-0.4,0.6-0.6,0.8c-0.3,0.5-0.7,0.9-1,1.4c-0.3,0.5-0.7,0.9-1,1.4c0,0-0.1,0.1-0.1,0.2
		c-0.1,0.1-0.1,0.2-0.2,0.3c-0.1,0.1-0.1,0.2-0.2,0.3c-0.1,0.1-0.1,0.2-0.2,0.2c-0.6,0.9-1.3,1.4-2.1,1.6c-0.5-0.2-0.9-0.3-1.2-0.5
		c-0.3-0.2-0.5-0.4-0.7-0.6s-0.4-0.4-0.5-0.7c-0.1-0.3-0.3-0.5-0.5-0.8c-0.2-0.3-0.3-0.6-0.5-0.8C10,23,9.9,22.8,9.8,22.6
		c-0.2-0.4-0.5-0.9-0.7-1.4c-0.2-0.5-0.4-1-0.6-1.4c-0.1-0.4-0.2-0.8-0.3-1.1S8,18.2,7.9,17.9s-0.2-0.5-0.2-0.8s-0.2-0.6-0.3-0.9
		c0,0.1-0.1,0.2-0.1,0.5s-0.1,0.6-0.2,0.9s-0.2,0.8-0.3,1.2c-0.1,0.4-0.2,0.9-0.3,1.4c-0.1,0.5-0.2,0.9-0.3,1.4S6,22.4,6,22.7
		c-0.1,0.4-0.1,0.6-0.2,0.9S5.7,24,5.7,24c-0.2,0.7-0.3,1.4-0.3,2.1c0,0.1,0,0.3,0,0.6c0,0.3,0,0.6,0,0.9c0,0.3,0,0.6,0,0.9
		c0,0.3,0,0.5,0,0.7c0,0.1,0,0.3-0.1,0.5S5,30.2,4.9,30.4c-0.1,0.2-0.3,0.3-0.5,0.5S4,31,3.8,31c-0.3,0-0.6,0-0.8,0
		s-0.4-0.1-0.6-0.2c-0.2-0.1-0.3-0.2-0.4-0.4c-0.1-0.2-0.2-0.4-0.3-0.6c0-0.1-0.1-0.2-0.1-0.3c0-0.1,0-0.2,0-0.4s0-0.3,0-0.5
		c0-0.2,0-0.5,0-0.8c0-0.1,0-0.3,0.1-0.6s0.2-0.7,0.3-1.1c0.1-0.4,0.2-0.9,0.3-1.4c0.1-0.5,0.3-1,0.4-1.5C2.7,22.9,2.9,22.4,3,22
		c0.1-0.4,0.2-0.8,0.3-1c0.1-0.5,0.3-0.9,0.4-1.4s0.3-1,0.4-1.5c0.1-0.5,0.3-1,0.4-1.5c0.1-0.5,0.3-1,0.4-1.4c0.1-0.5,0.1-0.8,0.2-1
		c0.1-0.2,0.1-0.5,0.2-0.8c0.1-0.3,0.2-0.5,0.3-0.8C5.7,12.4,5.8,12.2,6,12c0.2-0.2,0.4-0.2,0.7-0.2c0.7,0,1.3,0.1,1.8,0.2
		c0.4,0.2,0.8,0.4,1.1,0.8c0.3,0.3,0.5,0.8,0.6,1.3c0.2,0.5,0.3,1.2,0.5,1.9c0,0.2,0.1,0.4,0.2,0.6c0.1,0.2,0.1,0.3,0.2,0.5
		c0.3,0.9,0.7,1.9,1.1,2.8c0.4,0.9,1,1.9,1.5,2.8c0.2-0.2,0.5-0.4,0.6-0.7c0.2-0.3,0.4-0.7,0.6-1.1c0.2-0.4,0.4-0.7,0.6-1.1
		c0.2-0.3,0.5-0.6,0.7-1c0.1-0.1,0.3-0.3,0.5-0.6s0.5-0.6,0.8-0.9s0.6-0.7,0.9-1.1c0.3-0.4,0.6-0.8,0.9-1.1c0.3-0.4,0.5-0.7,0.8-1
		s0.4-0.5,0.5-0.6c0.1-0.1,0.2-0.2,0.2-0.3s0.1-0.1,0.2-0.2c0.1-0.1,0.3-0.4,0.5-0.7c0.2-0.3,0.5-0.6,0.7-1c0.3-0.3,0.5-0.7,0.7-1
		s0.4-0.5,0.5-0.7c0.1-0.2,0.4-0.3,0.7-0.3c0.2,0,0.4,0.1,0.6,0.2s0.4,0.3,0.6,0.4c0.2,0.2,0.3,0.3,0.5,0.5S26.1,10.9,26.1,11
		L26.1,11z"/>
	<path class="st1" d="M45.3,22.5c0,0.2-0.1,0.5-0.2,0.8c-0.2,0.3-0.4,0.7-0.7,1.1c-0.3,0.4-0.6,0.8-1,1.3s-0.8,0.9-1.2,1.4
		c-0.5,0.5-1,1-1.6,1.5c-0.6,0.5-1.2,1-1.8,1.4c-0.6,0.5-1.2,0.8-1.9,1.1c-0.6,0.3-1.2,0.4-1.7,0.4c-0.6,0-1.2-0.1-1.7-0.3
		c-0.5-0.2-0.9-0.5-1.2-0.9c-0.3-0.4-0.6-0.8-0.8-1.3c-0.2-0.5-0.4-1-0.5-1.5s-0.2-1.1-0.3-1.6c0-0.5-0.1-1.1-0.1-1.6
		c0-0.2,0-0.5,0-0.9s0.1-0.8,0.1-1.2c0-0.4,0.1-0.8,0.2-1.2c0.1-0.4,0.1-0.7,0.2-0.9c0.1-0.4,0.5-0.9,0.9-1.3c0.5-0.4,1-0.6,1.6-0.6
		c0.6,0,0.9,0.4,0.9,1.1c0,0.3,0,0.7-0.1,1.1c-0.1,0.4-0.1,0.7-0.2,1.1c-0.1,0.7-0.2,1.3-0.2,1.8c0,0.5-0.1,1-0.1,1.4
		c0,0.5,0,0.9,0.1,1.4s0.1,0.8,0.2,1.2c0.1,0.3,0.2,0.6,0.4,0.8c0.2,0.2,0.3,0.3,0.6,0.3c0.3,0,0.6,0,0.8-0.1c0.3,0,0.6-0.2,1.1-0.4
		c0.8-0.4,1.6-1,2.5-1.7c0.3-0.3,0.7-0.6,1.1-0.9s0.8-0.7,1.2-1.1c0.4-0.4,0.8-0.7,1.1-1.1c0.3-0.4,0.6-0.7,0.8-0.9
		c0,0,0.1-0.1,0.1-0.2c0-0.1,0.1-0.1,0.2-0.2c0.1-0.1,0.1-0.1,0.2-0.2c0.1,0,0.2-0.1,0.2-0.1c0.1,0,0.3,0,0.3,0.1s0.1,0.2,0.2,0.4
		C45.3,22.2,45.3,22.3,45.3,22.5z M36.8,11.3c0,0.3,0,0.6-0.1,0.9c-0.1,0.3-0.2,0.5-0.4,0.8c-0.3,0.5-0.9,0.7-1.6,0.7
		c-0.3,0-0.5,0-0.8-0.1c-0.3,0-0.5-0.1-0.7-0.2c-0.2-0.1-0.4-0.2-0.5-0.3s-0.2-0.3-0.2-0.4c0-0.3,0.1-0.6,0.2-0.9
		c0.1-0.3,0.3-0.6,0.6-0.9s0.5-0.5,0.8-0.7c0.3-0.2,0.5-0.3,0.8-0.3c0.3,0,0.6,0,0.8,0.1s0.5,0.1,0.6,0.2c0.2,0.1,0.3,0.2,0.4,0.4
		C36.8,10.8,36.8,11,36.8,11.3z"/>
	<path class="st1" d="M67,21.5c0,0.2,0,0.4-0.1,0.6s-0.1,0.4-0.2,0.6s-0.2,0.4-0.3,0.6s-0.2,0.3-0.3,0.4c-0.3,0.4-0.6,0.8-1,1.2
		s-0.7,0.8-1.1,1.2s-0.8,0.8-1.2,1.2s-0.8,0.7-1.2,1c-0.3,0.2-0.6,0.4-0.9,0.6s-0.6,0.4-0.9,0.5s-0.6,0.3-1,0.3s-0.7,0.1-1.2,0.1
		c-0.7,0-1.3-0.1-1.7-0.4s-0.8-0.6-1.1-1.1s-0.5-1-0.6-1.6s-0.3-1.2-0.3-1.8c-0.1-0.9-0.3-1.6-0.4-2.1S53,22,52.8,22
		c-0.2,0-0.4,0-0.5,0.1s-0.4,0.3-0.6,0.6s-0.6,0.7-1,1.2s-0.9,1.3-1.6,2.2c-0.2,0.3-0.5,0.7-0.8,1s-0.6,0.8-1,1.1
		c-0.3,0.4-0.7,0.7-1,0.9s-0.7,0.5-1,0.6c-1.1-0.3-1.7-1.4-1.7-3.3c0-0.5,0.1-1.2,0.2-2.2c0.1-0.4,0.1-0.9,0.2-1.4s0.2-1,0.3-1.4
		c0.1-0.5,0.2-0.9,0.4-1.4c0.1-0.5,0.3-0.9,0.5-1.3c0.1-0.2,0.2-0.4,0.4-0.5s0.3-0.2,0.4-0.3c0.1-0.1,0.3-0.1,0.4-0.1
		c0.2,0,0.3,0,0.5,0c0.1,0,0.3,0,0.4,0.1c0.1,0.1,0.2,0.2,0.3,0.3c0.1,0.1,0.2,0.3,0.2,0.5c0.1,0.2,0.1,0.4,0.1,0.6
		c0,0.2,0,0.4-0.1,0.6c0,0.2-0.1,0.4-0.2,0.6c-0.1,0.2-0.1,0.4-0.2,0.6c-0.1,0.2-0.1,0.5-0.2,0.8c0,0.2-0.1,0.4-0.2,0.7
		c-0.1,0.3-0.2,0.6-0.3,0.9c-0.1,0.3-0.2,0.6-0.2,1c-0.1,0.3-0.1,0.6-0.1,0.8c0.2-0.2,0.4-0.4,0.6-0.7c0.2-0.3,0.4-0.6,0.7-0.9
		c0.2-0.3,0.5-0.7,0.7-1s0.5-0.7,0.7-1c0.3-0.4,0.6-0.8,0.9-1.1c0.3-0.4,0.6-0.7,1-0.9s0.7-0.5,1.1-0.6s0.9-0.2,1.4-0.2
		c0.6,0,1.1,0.1,1.4,0.4s0.7,0.6,0.9,1s0.4,0.9,0.5,1.5s0.2,1.2,0.3,1.9c0,0.4,0.1,0.7,0.1,1.1s0.1,0.7,0.3,1s0.3,0.6,0.5,0.8
		s0.4,0.3,0.7,0.3c0.4,0,0.9-0.1,1.4-0.3s1-0.5,1.6-0.9s1.1-0.8,1.7-1.4s1.1-1.1,1.7-1.7c0.2-0.2,0.4-0.4,0.5-0.6s0.3-0.4,0.5-0.5
		s0.3-0.3,0.5-0.4c0.1-0.1,0.3-0.1,0.4-0.1c0.1,0,0.1,0,0.2,0s0.1,0,0.2,0.1c0.1,0,0.1,0.1,0.2,0.2S67,21.4,67,21.5z"/>
	<path class="st1" d="M68.5,12.8c0,0.3,0,0.6-0.1,0.9s-0.2,0.8-0.3,1.3v0c-0.2,0.9-0.6,1.8-1,2.5v0c-0.2,0.4-0.5,0.7-0.8,1
		s-0.6,0.3-1,0.3c-0.2,0-0.4,0-0.6-0.1s-0.3-0.2-0.5-0.3S64.1,18.2,64,18s-0.1-0.3-0.1-0.5c0-0.1,0-0.2,0.1-0.4s0.1-0.3,0.2-0.4
		s0.1-0.3,0.2-0.4s0.2-0.2,0.2-0.3c0.2-0.2,0.4-0.4,0.5-0.5s0.2-0.4,0.3-0.6s0.1-0.4,0.2-0.6s0.1-0.5,0.1-0.8c0-0.2-0.1-0.4-0.2-0.6
		c-0.1-0.1-0.2-0.3-0.3-0.4s-0.3-0.3-0.4-0.4c-0.4-0.4-0.7-0.7-0.7-0.8L64,10.7c0-0.2,0-0.3,0-0.4s0-0.2,0-0.2
		c0.1-0.3,0.4-0.5,0.9-0.7c0.2-0.1,0.3-0.2,0.5-0.2s0.3,0,0.4,0c0.3,0,0.5,0.1,0.8,0.4c0.1,0.1,0.2,0.2,0.3,0.3s0.2,0.2,0.3,0.3
		c0.3,0.3,0.4,0.4,0.5,0.5s0.2,0.2,0.2,0.2c0.1,0.2,0.2,0.4,0.3,0.5s0.2,0.3,0.2,0.4c0.1,0.1,0.1,0.3,0.1,0.5S68.5,12.6,68.5,12.8
		L68.5,12.8z"/>
	<path class="st1" d="M85.5,21.4c0,0.2-0.1,0.6-0.3,0.9s-0.5,0.8-0.8,1.2s-0.7,0.8-1.1,1.3s-0.8,0.8-1.2,1.2c-0.2,0.2-0.6,0.5-1,0.9
		s-0.9,0.8-1.5,1.3s-1.1,0.9-1.7,1.4s-1.2,1-1.7,1.4s-1,0.8-1.4,1.1s-0.7,0.5-0.9,0.7c-0.6,0.4-1.1,0.7-1.6,0.9s-0.9,0.3-1.3,0.3
		c-0.3,0-0.6,0-0.8-0.1s-0.4-0.1-0.5-0.2s-0.2-0.2-0.3-0.3s-0.1-0.2-0.1-0.4c0-0.3,0.1-0.6,0.2-0.9s0.3-0.5,0.6-0.7s0.6-0.4,1-0.6
		s0.8-0.4,1.4-0.6c0.3-0.1,0.7-0.3,0.9-0.4s0.5-0.3,0.7-0.4s0.4-0.3,0.5-0.5s0.2-0.4,0.2-0.7c0-0.1,0-0.2-0.1-0.4s-0.2-0.4-0.3-0.6
		s-0.3-0.5-0.5-0.7s-0.3-0.5-0.5-0.8s-0.3-0.5-0.5-0.7s-0.3-0.4-0.3-0.6c-0.4-0.7-0.6-1.4-0.6-2.1c0-0.3,0-0.6,0.1-1
		c0.1-0.3,0.1-0.7,0.3-1c0.1-0.4,0.3-0.8,0.6-1.2s0.6-0.8,0.9-1.1s0.7-0.6,1-0.8s0.6-0.3,0.9-0.3c0.3,0,0.6,0,0.8,0.1
		s0.4,0.2,0.5,0.3s0.2,0.3,0.2,0.5s0.1,0.4,0.1,0.7c0,0.2-0.1,0.4-0.2,0.6s-0.2,0.4-0.4,0.6S76.2,19.8,76,20s-0.3,0.3-0.5,0.4
		c-0.2,0.2-0.4,0.3-0.5,0.5c-0.2,0.1-0.3,0.3-0.4,0.4c0,0.6,0.2,1.1,0.4,1.6c0.1,0.2,0.3,0.5,0.5,0.9s0.4,0.7,0.6,1.1s0.4,0.7,0.6,1
		s0.3,0.6,0.5,0.8c0.1-0.1,0.3-0.2,0.6-0.4s0.6-0.4,0.9-0.6s0.7-0.5,1.1-0.8s0.8-0.6,1.2-1s0.8-0.7,1.2-1s0.7-0.6,1-0.9
		c0.3-0.2,0.5-0.5,0.6-0.6s0.3-0.3,0.4-0.4s0.2-0.2,0.3-0.3s0.2-0.1,0.3-0.1c0.1,0,0.2,0,0.3,0.1s0.1,0.2,0.2,0.3
		c0,0.1,0.1,0.2,0.1,0.3S85.5,21.4,85.5,21.4z"/>
	<path class="st1" d="M113.6,14.6c0,0.1,0,0.3-0.1,0.6s-0.2,0.5-0.3,0.8s-0.2,0.6-0.4,0.9s-0.3,0.5-0.4,0.7
		c-0.3,0.4-0.7,0.9-1.3,1.4s-1.2,1-1.9,1.5c-0.7,0.5-1.4,0.9-2.1,1.3s-1.4,0.8-2.2,1.2c-0.9,0.4-1.7,0.8-2.7,1.2s-1.8,0.7-2.7,1v0.7
		c0,0.1,0,0.3,0,0.6s0,0.6,0.1,0.9s0,0.7,0.1,1.1s0,0.8,0.1,1.1s0,0.7,0.1,1s0,0.6,0,0.8c0,0.5-0.1,0.8-0.4,1.1s-0.7,0.4-1.2,0.4
		c-1.3,0-2-2.2-2-6.7c0-0.4,0-0.8,0-1.2s0.1-0.8,0.1-1.3s0.1-1,0.2-1.5s0.2-1.1,0.3-1.8c0.1-0.5,0.2-1.1,0.3-1.6s0.2-1,0.3-1.5
		s0.2-1,0.4-1.4s0.3-0.9,0.5-1.4c-0.3,0.1-0.6,0.2-0.9,0.3s-0.6,0.2-1,0.3c-0.1,0-0.2,0.1-0.3,0.1s-0.2,0-0.3,0
		c-0.3,0-0.6-0.1-0.9-0.3s-0.3-0.4-0.3-0.8c0-0.4,0.1-0.7,0.2-1s0.4-0.5,0.7-0.7s0.8-0.4,1.3-0.6s1.2-0.3,1.9-0.5
		c0.4-0.1,0.9-0.2,1.4-0.3s1-0.2,1.5-0.2s1-0.1,1.5-0.2s0.9-0.1,1.3-0.1c0.5,0,1,0,1.4,0s0.9,0,1.3,0.1s0.9,0.1,1.3,0.2
		s0.9,0.2,1.3,0.3c1,0.2,1.8,0.6,2.4,1.1C113.2,13,113.6,13.7,113.6,14.6z M105.8,13.5c-0.7,0-1.5,0-2.4,0.1s-1.7,0.2-2.5,0.3
		c0.3,0.3,0.4,0.6,0.4,1.1c0,0.1,0,0.2-0.1,0.4s-0.1,0.5-0.2,0.8s-0.2,0.5-0.2,0.8s-0.1,0.4-0.2,0.4c0,0.1-0.1,0.3-0.1,0.4
		s-0.1,0.4-0.1,0.6s-0.1,0.4-0.1,0.6s-0.1,0.4-0.1,0.6c-0.1,0.3-0.1,0.5-0.1,0.7s-0.1,0.4-0.1,0.6c0,0.2,0,0.3,0,0.5s0,0.3,0,0.5
		c0.3-0.1,0.6-0.3,1-0.4s0.8-0.3,1.2-0.5s0.8-0.3,1.2-0.5s0.7-0.3,1-0.5c0.2-0.1,0.3-0.2,0.5-0.3s0.4-0.2,0.6-0.3s0.4-0.2,0.6-0.3
		s0.4-0.2,0.6-0.3c0.4-0.3,0.9-0.6,1.4-0.9s0.9-0.7,1.3-1.2s0.7-0.8,1-1.3s0.4-0.8,0.4-1.2c0-0.2-0.2-0.3-0.7-0.5
		c-0.7-0.2-1.4-0.3-2.1-0.3S106.3,13.5,105.8,13.5z"/>
	<path class="st1" d="M133.8,19.9c0,0.2,0,0.3-0.1,0.5s-0.2,0.4-0.3,0.5c-0.1,0.2-0.3,0.3-0.4,0.5s-0.3,0.3-0.5,0.4
		c-0.3,0.2-0.8,0.4-1.4,0.6s-1.4,0.2-2.3,0.2c-0.3,0-0.5,0-0.8-0.1s-0.6-0.1-0.9-0.2s-0.6-0.1-0.9-0.2s-0.6-0.2-0.8-0.3
		c0.1,0.1,0.1,0.2,0.1,0.3s0.1,0.3,0.1,0.4s0,0.3,0,0.4s0,0.3,0,0.3c0,0.6-0.1,1.2-0.3,1.7s-0.5,1.1-0.8,1.7s-0.7,1-1.1,1.5
		s-0.9,0.8-1.3,1.2c-0.4,0.3-0.8,0.5-1.2,0.7s-0.9,0.4-1.4,0.5s-1,0.2-1.5,0.3s-1,0.1-1.5,0.1c-0.4,0-0.8-0.1-1.2-0.3
		s-0.7-0.5-1-0.8s-0.5-0.7-0.7-1.1s-0.3-0.8-0.3-1.2c0-0.7,0.1-1.4,0.3-2.1s0.5-1.3,0.8-2s0.7-1.2,1.1-1.9c0.4-0.6,0.9-1.2,1.4-1.8
		c0.3-0.3,0.6-0.7,1-1s0.8-0.6,1.2-0.9s0.8-0.5,1.2-0.6s0.8-0.2,1.2-0.2c0.3,0,0.6,0,0.8,0.1s0.4,0.2,0.6,0.3s0.4,0.3,0.6,0.5
		s0.4,0.4,0.6,0.6l0.3,0.3c0.1,0.1,0.3,0.2,0.6,0.3s0.7,0.3,1.2,0.4s0.9,0.3,1.4,0.4s0.9,0.2,1.3,0.2c0.4,0,0.8,0,1.2,0
		s0.7,0,1.1-0.1s0.8-0.2,1.2-0.3s0.9-0.3,1.3-0.5c0,0.1,0.1,0.2,0.1,0.3S133.8,19.8,133.8,19.9z M123.2,22.9c0-0.2,0-0.5,0-0.7
		s-0.1-0.5-0.1-0.7s-0.2-0.4-0.3-0.6c-0.1-0.2-0.3-0.3-0.5-0.3c-0.3-0.1-0.6-0.2-0.8-0.3s-0.4-0.2-0.5-0.3s-0.2-0.2-0.2-0.2
		s-0.1-0.1-0.1-0.1c-0.1,0-0.2,0.1-0.3,0.2s-0.3,0.3-0.4,0.5s-0.3,0.4-0.5,0.6c-0.2,0.2-0.3,0.4-0.5,0.6c-0.2,0.2-0.4,0.5-0.5,0.7
		s-0.3,0.5-0.5,0.7s-0.3,0.5-0.5,0.8s-0.3,0.6-0.5,0.9c-0.1,0.3-0.3,0.6-0.3,1.1s-0.1,0.8-0.1,1.2c0,0.2,0,0.3,0.1,0.5
		s0.1,0.3,0.2,0.4s0.2,0.2,0.3,0.3s0.3,0.1,0.4,0.1c0.4,0,0.8,0,1.1-0.1s0.5-0.1,0.8-0.2s0.5-0.2,0.7-0.4s0.6-0.4,0.9-0.7
		c0.2-0.1,0.3-0.3,0.5-0.4s0.3-0.4,0.5-0.5s0.3-0.4,0.5-0.6s0.3-0.4,0.4-0.6c0.1-0.1,0.1-0.3,0.2-0.4s0.1-0.4,0.1-0.5
		s0.1-0.4,0.1-0.5S123.2,23,123.2,22.9L123.2,22.9z"/>
	<path class="st1" d="M133.5,18.9c0.1,0,0.3,0,0.4,0.1s0.3,0.1,0.4,0.2s0.2,0.2,0.3,0.3s0.2,0.2,0.2,0.3c0.1,0.1,0.1,0.2,0.2,0.3
		s0,0.3,0,0.4c0,0.2,0,0.4,0,0.7c0,0.2-0.1,0.4-0.1,0.5c-0.1,0.2-0.1,0.5-0.2,0.8s-0.1,0.6-0.2,0.9s-0.1,0.7-0.2,1.1
		s-0.1,0.7-0.1,1.1c0.1-0.4,0.3-0.8,0.5-1.3s0.5-1,0.7-1.5s0.5-1,0.8-1.5c0.3-0.5,0.6-0.9,0.9-1.3c0.2-0.3,0.5-0.5,0.7-0.7
		s0.6-0.4,0.9-0.6s0.6-0.3,1-0.4s0.7-0.2,1-0.2c0.3,0,0.5,0,0.8,0.1s0.5,0.2,0.7,0.3s0.4,0.3,0.5,0.5s0.2,0.4,0.2,0.7
		c0,0.1,0,0.2-0.1,0.4s-0.1,0.3-0.2,0.5s-0.2,0.3-0.4,0.4c-0.2,0.1-0.3,0.2-0.5,0.2c-0.1,0-0.3,0-0.4,0s-0.4,0-0.5,0
		c-0.4,0-0.7,0.1-1.1,0.3s-0.7,0.5-1.1,1c-0.2,0.3-0.5,0.6-0.7,1.1s-0.5,0.9-0.8,1.4s-0.5,1-0.8,1.6s-0.5,1.1-0.7,1.6
		c-0.1,0.3-0.2,0.5-0.3,0.8s-0.2,0.6-0.3,0.9s-0.2,0.6-0.2,1s-0.1,0.6-0.2,0.9c0,0.1-0.1,0.2-0.2,0.3s-0.3,0.2-0.5,0.3
		s-0.4,0.2-0.5,0.2s-0.3,0.1-0.4,0.1c-0.3,0-0.6-0.1-0.9-0.3s-0.4-0.5-0.5-0.8s-0.2-0.7-0.3-1.1s-0.1-0.8-0.1-1.1c0-0.3,0-0.6,0-1
		s0-0.8,0-1.2s0-0.9,0-1.3s0-0.8,0-1.2s0-0.7,0-1s0-0.5,0-0.7v-1.6c0-0.1,0-0.2,0-0.3c0-0.1,0-0.2,0-0.3c0-0.3,0.1-0.5,0.2-0.7
		s0.3-0.4,0.4-0.5s0.4-0.3,0.6-0.3S133.3,18.9,133.5,18.9z M159.4,19.4c0,0.2,0,0.4-0.1,0.5s-0.1,0.3-0.2,0.4s-0.2,0.2-0.3,0.3
		s-0.3,0.1-0.4,0.2c-0.4,0.2-0.8,0.4-1.3,0.5s-1,0.3-1.5,0.4s-1,0.2-1.5,0.2s-0.9,0.1-1.3,0.2c-0.3,0-0.5,0.1-0.8,0.1
		s-0.5,0.1-0.8,0.1s-0.5,0-0.7,0.1s-0.4,0.1-0.6,0.1c-0.2,0.8-0.4,1.5-0.5,2.2s-0.3,1.4-0.4,2c0,0.2-0.1,0.4-0.1,0.7s-0.1,0.7-0.2,1
		s-0.1,0.7-0.1,1s-0.1,0.5-0.1,0.7c0,0.3,0,0.5,0.1,0.7s0.2,0.3,0.3,0.4s0.2,0.2,0.3,0.4s0.1,0.3,0.1,0.6c0,0.2-0.1,0.4-0.2,0.5
		s-0.3,0.3-0.5,0.4s-0.4,0.2-0.6,0.3s-0.4,0.1-0.6,0.1c-0.3,0-0.6-0.1-0.9-0.3s-0.5-0.4-0.7-0.7s-0.3-0.6-0.4-0.9s-0.2-0.7-0.2-1.1
		c0-0.6,0.1-1.2,0.2-1.9s0.3-1.4,0.4-2.1c0.1-0.3,0.1-0.6,0.2-1s0.2-0.8,0.2-1.1s0.1-0.7,0.2-1s0.1-0.5,0.1-0.6
		c-0.2,0-0.4,0-0.6,0.1s-0.4,0-0.6,0c-0.2,0-0.4,0-0.6-0.1s-0.3-0.2-0.5-0.4s-0.2-0.3-0.3-0.5s-0.1-0.4-0.1-0.6
		c0-0.2,0.1-0.3,0.2-0.5s0.3-0.3,0.4-0.4s0.4-0.2,0.6-0.3s0.4-0.1,0.6-0.1c0.2,0,0.4,0,0.6,0s0.5,0,0.7,0c0,0,0.1-0.1,0.2-0.3
		s0.1-0.4,0.2-0.7s0.2-0.6,0.2-0.9s0.2-0.7,0.2-1s0.1-0.6,0.2-0.8s0.1-0.4,0.1-0.5c0.1-0.4,0.3-0.9,0.4-1.4s0.3-0.9,0.5-1.4
		s0.4-0.8,0.7-1s0.7-0.4,1.1-0.4c0.2,0,0.4,0,0.5,0.1s0.2,0.1,0.3,0.2s0.1,0.3,0.2,0.4s0,0.4,0,0.8c0,0.2,0,0.5-0.1,0.8
		s-0.1,0.6-0.2,0.9c-0.2,0.7-0.4,1.3-0.6,1.9s-0.3,1.1-0.4,1.6s-0.2,0.8-0.2,1.1s-0.1,0.5-0.1,0.5c0.4,0,0.7,0,1.1,0s0.7,0,1.1-0.1
		s0.7-0.1,1.1-0.1s0.8-0.1,1.3-0.1c0.5-0.1,1-0.1,1.4-0.2s0.7-0.1,1-0.2s0.5-0.1,0.8-0.1s0.5-0.1,0.7-0.1c0.1,0,0.2,0,0.3,0
		s0.1,0,0.2,0.1s0.1,0.1,0.1,0.2S159.4,19.2,159.4,19.4z"/>
	<path class="st1" d="M169.3,20.9c0,0.1,0,0.2-0.1,0.3s-0.2,0.3-0.3,0.4s-0.2,0.3-0.4,0.4s-0.3,0.2-0.4,0.3
		c-0.1,0.1-0.4,0.1-0.7,0.2s-0.7,0.2-1.1,0.3s-0.9,0.2-1.4,0.2s-1,0.1-1.4,0.2c-0.4,0-0.8,0.1-1.1,0.1s-0.6,0.1-0.8,0.1
		s-0.5,0-0.7,0.1s-0.4,0-0.7,0c0,0.2-0.1,0.5-0.1,0.9s-0.1,0.9-0.2,1.4s-0.1,1.1-0.2,1.7s-0.2,1.2-0.2,1.7s-0.1,1-0.2,1.5
		s-0.1,0.8-0.1,1c-0.1,0.5-0.2,1-0.3,1.6s-0.2,1-0.4,1.4c-0.2,0.5-0.4,0.9-0.7,1.3s-0.6,0.8-0.9,1.2c-0.7,0.8-1.6,1.2-2.6,1.2
		c-0.2,0-0.4,0-0.7-0.1s-0.4-0.2-0.6-0.3s-0.3-0.3-0.4-0.4s-0.2-0.3-0.2-0.5c0-0.1,0-0.3,0.1-0.5s0.2-0.4,0.3-0.6s0.3-0.3,0.4-0.5
		s0.3-0.2,0.5-0.2c0.1,0,0.1,0,0.2,0s0.2,0,0.3,0.1s0.2,0,0.3,0.1s0.2,0,0.3,0c0.2-0.1,0.3-0.3,0.4-0.5s0.2-0.5,0.3-0.7
		s0.2-0.6,0.2-0.9s0.1-0.6,0.2-0.9c0.1-0.6,0.2-1.2,0.3-1.8s0.2-1.1,0.3-1.6s0.2-1.1,0.2-1.6s0.1-1,0.2-1.6c0-0.1,0-0.3,0.1-0.5
		s0-0.4,0.1-0.6s0-0.4,0.1-0.6s0-0.4,0-0.6c0-0.1,0-0.1-0.1-0.2s-0.2-0.2-0.3-0.3s-0.2-0.2-0.3-0.4s-0.1-0.3-0.1-0.4
		c0-0.2,0.3-0.7,0.8-1.3c0.2-0.3,0.4-0.5,0.5-0.7s0.2-0.4,0.2-0.6s0.1-0.4,0.1-0.7s0.1-0.5,0.1-0.9c0.1-0.5,0.2-1,0.2-1.4
		s0.2-0.8,0.3-1.2s0.2-0.8,0.4-1.1s0.4-0.8,0.6-1.2c0.2-0.3,0.4-0.7,0.7-1s0.6-0.6,0.9-0.9s0.7-0.5,1.1-0.7s0.8-0.3,1.2-0.3
		c0.8,0,1.5,0.3,2,0.8c0.6,0.6,0.9,1.2,0.9,2c0,0.9-0.4,1.9-1.1,2.9c-0.4,0.7-0.9,1-1.5,1h-0.2c0.1-0.4,0.2-0.9,0.3-1.3
		s0.1-0.8,0.1-1.1c0-0.1,0-0.3,0-0.6s-0.1-0.5-0.1-0.7s-0.1-0.4-0.2-0.6s-0.2-0.3-0.3-0.3c-0.1,0-0.2,0.1-0.3,0.2s-0.3,0.3-0.4,0.5
		s-0.3,0.4-0.4,0.6s-0.2,0.4-0.3,0.7c-0.1,0.3-0.2,0.6-0.4,1.1s-0.3,1-0.4,1.5s-0.2,1-0.3,1.6s-0.2,1-0.2,1.4v0.5
		c0,0.1,0.1,0.1,0.2,0.1s0.3,0.1,0.5,0.1s0.5,0,0.7,0s0.6,0,0.8,0c0.5,0,0.9,0,1.4,0s0.9,0,1.3-0.1s0.9-0.1,1.3-0.2s0.9-0.1,1.4-0.2
		c0.1,0,0.1,0,0.2,0s0.1,0,0.2,0C169.1,20.3,169.3,20.5,169.3,20.9z"/>
	<path class="st1" d="M185.9,19.9c0,0.2,0,0.3-0.1,0.5s-0.2,0.4-0.3,0.5c-0.1,0.2-0.3,0.3-0.4,0.5s-0.3,0.3-0.5,0.4
		c-0.3,0.2-0.8,0.4-1.4,0.6s-1.4,0.2-2.3,0.2c-0.3,0-0.5,0-0.8-0.1s-0.6-0.1-0.9-0.2s-0.6-0.1-0.9-0.2s-0.6-0.2-0.8-0.3
		c0.1,0.1,0.1,0.2,0.1,0.3s0.1,0.3,0.1,0.4s0,0.3,0,0.4s0,0.3,0,0.3c0,0.6-0.1,1.2-0.3,1.7s-0.5,1.1-0.8,1.7s-0.7,1-1.1,1.5
		s-0.9,0.8-1.3,1.2c-0.4,0.3-0.8,0.5-1.2,0.7s-0.9,0.4-1.4,0.5s-1,0.2-1.5,0.3s-1,0.1-1.5,0.1c-0.4,0-0.8-0.1-1.2-0.3
		s-0.7-0.5-1-0.8s-0.5-0.7-0.7-1.1s-0.3-0.8-0.3-1.2c0-0.7,0.1-1.4,0.3-2.1s0.5-1.3,0.8-2s0.7-1.2,1.1-1.9c0.4-0.6,0.9-1.2,1.4-1.8
		c0.3-0.3,0.6-0.7,1-1s0.8-0.6,1.2-0.9s0.8-0.5,1.2-0.6s0.8-0.2,1.2-0.2c0.3,0,0.6,0,0.8,0.1s0.4,0.2,0.6,0.3s0.4,0.3,0.6,0.5
		s0.4,0.4,0.6,0.6l0.3,0.3c0.1,0.1,0.3,0.2,0.6,0.3s0.7,0.3,1.2,0.4s0.9,0.3,1.4,0.4s0.9,0.2,1.3,0.2c0.4,0,0.8,0,1.2,0
		s0.7,0,1.1-0.1s0.8-0.2,1.2-0.3s0.9-0.3,1.3-0.5c0,0.1,0.1,0.2,0.1,0.3S185.9,19.8,185.9,19.9z M175.3,22.9c0-0.2,0-0.5,0-0.7
		s-0.1-0.5-0.1-0.7s-0.2-0.4-0.3-0.6c-0.1-0.2-0.3-0.3-0.5-0.3c-0.3-0.1-0.6-0.2-0.8-0.3s-0.4-0.2-0.5-0.3s-0.2-0.2-0.2-0.2
		s-0.1-0.1-0.1-0.1c-0.1,0-0.2,0.1-0.3,0.2s-0.3,0.3-0.4,0.5s-0.3,0.4-0.5,0.6c-0.2,0.2-0.3,0.4-0.5,0.6c-0.2,0.2-0.4,0.5-0.5,0.7
		s-0.3,0.5-0.5,0.7s-0.3,0.5-0.5,0.8s-0.3,0.6-0.5,0.9c-0.1,0.3-0.3,0.6-0.3,1.1s-0.1,0.8-0.1,1.2c0,0.2,0,0.3,0.1,0.5
		s0.1,0.3,0.2,0.4s0.2,0.2,0.3,0.3s0.3,0.1,0.4,0.1c0.4,0,0.8,0,1.1-0.1s0.5-0.1,0.8-0.2s0.5-0.2,0.7-0.4s0.6-0.4,0.9-0.7
		c0.2-0.1,0.3-0.3,0.5-0.4s0.3-0.4,0.5-0.5s0.3-0.4,0.5-0.6s0.3-0.4,0.4-0.6c0.1-0.1,0.1-0.3,0.2-0.4s0.1-0.4,0.1-0.5
		s0.1-0.4,0.1-0.5S175.3,23,175.3,22.9L175.3,22.9z"/>
	<path class="st1" d="M196.8,22.9c0,0.2-0.1,0.5-0.2,0.8s-0.3,0.7-0.5,1.1s-0.6,0.9-1,1.4s-0.9,1.1-1.5,1.7c-0.3,0.3-0.7,0.7-1.1,1
		s-0.9,0.6-1.3,0.9s-1,0.5-1.5,0.6s-1,0.2-1.5,0.2c-0.7,0-1.3-0.1-1.9-0.4s-1.1-0.6-1.5-1.1s-0.8-1.1-1-1.8s-0.4-1.6-0.4-2.6
		c0-0.6,0-1.3,0.1-2s0.1-1.4,0.2-2.1c0.1-0.7,0.2-1.4,0.3-2.1s0.2-1.4,0.4-2c0.1-0.4,0.2-0.8,0.2-1.2s0.1-0.7,0.2-1s0.1-0.7,0.2-1.1
		s0.1-0.8,0.2-1.4c0-0.3,0.1-0.5,0.2-0.7s0.2-0.4,0.4-0.6s0.4-0.3,0.6-0.4s0.5-0.2,0.8-0.2c0.7,0,1.2,0.3,1.5,0.9l-0.2,0.8
		c-0.1,0.4-0.2,1-0.3,1.5s-0.3,1.2-0.4,1.9s-0.3,1.4-0.5,2.2s-0.3,1.5-0.4,2.3s-0.2,1.6-0.3,2.3s-0.1,1.5-0.1,2.2c0,0.5,0,1,0.1,1.5
		s0.2,0.8,0.4,1.1s0.4,0.6,0.7,0.7s0.6,0.3,1,0.3s0.8-0.1,1.2-0.2s0.8-0.4,1.2-0.6s0.8-0.5,1.2-0.9s0.8-0.7,1.1-1s0.7-0.7,0.9-1
		s0.5-0.6,0.7-0.8c0.1-0.1,0.2-0.2,0.3-0.3s0.2-0.2,0.3-0.3s0.3-0.2,0.4-0.3s0.3-0.1,0.5-0.1c0.1,0,0.2,0.1,0.3,0.2
		S196.8,22.7,196.8,22.9z"/>
	<path class="st1" d="M210.3,22.5c0,0.2-0.1,0.5-0.2,0.8s-0.4,0.7-0.7,1.1s-0.6,0.8-1,1.3s-0.8,0.9-1.2,1.4c-0.5,0.5-1,1-1.6,1.5
		s-1.2,1-1.8,1.4c-0.6,0.5-1.2,0.8-1.9,1.1s-1.2,0.4-1.7,0.4c-0.6,0-1.2-0.1-1.7-0.3s-0.9-0.5-1.2-0.9s-0.6-0.8-0.8-1.3
		s-0.4-1-0.5-1.5s-0.2-1.1-0.3-1.6s-0.1-1.1-0.1-1.6c0-0.2,0-0.5,0-0.9s0.1-0.8,0.1-1.2s0.1-0.8,0.2-1.2c0.1-0.4,0.1-0.7,0.2-0.9
		c0.1-0.4,0.5-0.9,0.9-1.3c0.5-0.4,1-0.6,1.6-0.6c0.6,0,0.9,0.4,0.9,1.1c0,0.3,0,0.7-0.1,1.1s-0.1,0.7-0.2,1.1
		c-0.1,0.7-0.2,1.3-0.2,1.8s-0.1,1-0.1,1.4c0,0.5,0,0.9,0.1,1.4s0.1,0.8,0.2,1.2s0.2,0.6,0.4,0.8s0.3,0.3,0.6,0.3
		c0.3,0,0.6,0,0.8-0.1s0.6-0.2,1.1-0.4c0.8-0.4,1.6-1,2.5-1.7c0.3-0.3,0.7-0.6,1.1-0.9s0.8-0.7,1.2-1.1s0.8-0.7,1.1-1.1
		s0.6-0.7,0.8-0.9c0,0,0.1-0.1,0.1-0.2s0.1-0.1,0.2-0.2s0.1-0.1,0.2-0.2s0.2-0.1,0.2-0.1c0.1,0,0.3,0,0.3,0.1s0.1,0.2,0.2,0.4
		C210.2,22.2,210.3,22.3,210.3,22.5z M201.8,11.3c0,0.3,0,0.6-0.1,0.9s-0.2,0.5-0.4,0.8c-0.3,0.5-0.9,0.7-1.6,0.7
		c-0.3,0-0.5,0-0.8-0.1s-0.5-0.1-0.7-0.2s-0.4-0.2-0.5-0.3s-0.2-0.3-0.2-0.4c0-0.3,0.1-0.6,0.2-0.9s0.3-0.6,0.6-0.9s0.5-0.5,0.8-0.7
		s0.5-0.3,0.8-0.3c0.3,0,0.6,0,0.8,0.1s0.5,0.1,0.6,0.2s0.3,0.2,0.4,0.4S201.8,11,201.8,11.3z"/>
	<path class="st1" d="M227.6,19.9c0,0.2,0,0.3-0.1,0.5s-0.2,0.4-0.3,0.5c-0.1,0.2-0.3,0.3-0.4,0.5s-0.3,0.3-0.5,0.4
		c-0.3,0.2-0.8,0.4-1.4,0.6s-1.4,0.2-2.3,0.2c-0.3,0-0.5,0-0.8-0.1s-0.6-0.1-0.9-0.2s-0.6-0.1-0.9-0.2s-0.6-0.2-0.8-0.3
		c0.1,0.1,0.1,0.2,0.1,0.3s0.1,0.3,0.1,0.4s0,0.3,0,0.4s0,0.3,0,0.3c0,0.6-0.1,1.2-0.3,1.7s-0.5,1.1-0.8,1.7s-0.7,1-1.1,1.5
		s-0.9,0.8-1.3,1.2c-0.4,0.3-0.8,0.5-1.2,0.7s-0.9,0.4-1.4,0.5s-1,0.2-1.5,0.3s-1,0.1-1.5,0.1c-0.4,0-0.8-0.1-1.2-0.3
		s-0.7-0.5-1-0.8s-0.5-0.7-0.7-1.1s-0.3-0.8-0.3-1.2c0-0.7,0.1-1.4,0.3-2.1s0.5-1.3,0.8-2s0.7-1.2,1.1-1.9c0.4-0.6,0.9-1.2,1.4-1.8
		c0.3-0.3,0.6-0.7,1-1s0.8-0.6,1.2-0.9s0.8-0.5,1.2-0.6s0.8-0.2,1.2-0.2c0.3,0,0.6,0,0.8,0.1s0.4,0.2,0.6,0.3s0.4,0.3,0.6,0.5
		s0.4,0.4,0.6,0.6l0.3,0.3c0.1,0.1,0.3,0.2,0.6,0.3s0.7,0.3,1.2,0.4s0.9,0.3,1.4,0.4s0.9,0.2,1.3,0.2c0.4,0,0.8,0,1.2,0
		s0.7,0,1.1-0.1s0.8-0.2,1.2-0.3s0.9-0.3,1.3-0.5c0,0.1,0.1,0.2,0.1,0.3S227.6,19.8,227.6,19.9z M217,22.9c0-0.2,0-0.5,0-0.7
		s-0.1-0.5-0.1-0.7s-0.2-0.4-0.3-0.6c-0.1-0.2-0.3-0.3-0.5-0.3c-0.3-0.1-0.6-0.2-0.8-0.3s-0.4-0.2-0.5-0.3s-0.2-0.2-0.2-0.2
		s-0.1-0.1-0.1-0.1c-0.1,0-0.2,0.1-0.3,0.2s-0.3,0.3-0.4,0.5s-0.3,0.4-0.5,0.6c-0.2,0.2-0.3,0.4-0.5,0.6c-0.2,0.2-0.4,0.5-0.5,0.7
		s-0.3,0.5-0.5,0.7s-0.3,0.5-0.5,0.8s-0.3,0.6-0.5,0.9c-0.1,0.3-0.3,0.6-0.3,1.1s-0.1,0.8-0.1,1.2c0,0.2,0,0.3,0.1,0.5
		s0.1,0.3,0.2,0.4s0.2,0.2,0.3,0.3s0.3,0.1,0.4,0.1c0.4,0,0.8,0,1.1-0.1s0.5-0.1,0.8-0.2s0.5-0.2,0.7-0.4s0.6-0.4,0.9-0.7
		c0.2-0.1,0.3-0.3,0.5-0.4s0.3-0.4,0.5-0.5s0.3-0.4,0.5-0.6s0.3-0.4,0.4-0.6c0.1-0.1,0.1-0.3,0.2-0.4s0.1-0.4,0.1-0.5
		s0.1-0.4,0.1-0.5S217,23,217,22.9L217,22.9z"/>
</g>
<polygon class="st2" points="11,9.2 9.2,12.8 7,9.4 3.4,7.7 6.9,5.5 8.6,1.9 10.7,5.3 14.3,7.1 "/>
<polygon class="st3" points="36.6,13.7 35.2,16.7 33.5,13.8 30.5,12.4 33.3,10.7 34.8,7.8 36.5,10.6 39.4,12 "/>
<polygon class="st2" points="223.3,28.9 220.6,31.3 220.1,27.7 217.7,24.9 221.3,24.4 224,22 224.6,25.6 226.9,28.4 "/>
<polygon class="st2" points="225.7,35.8 225,37.4 224,35.9 222.4,35.1 223.9,34.2 224.7,32.6 225.6,34.1 227.2,34.9 "/>
<polygon class="st2" points="58.9,7.1 57.7,9.5 56.3,7.3 53.9,6.1 56.2,4.7 57.3,2.4 58.7,4.6 61.1,5.8 "/>
<polygon class="st3" points="201,13.6 199.5,17 197.5,13.9 194.2,12.3 197.3,10.4 199,7 200.9,10.1 204.3,11.7 "/>
<polygon class="st2" points="10.3,30 9.2,32.4 7.8,30.1 5.4,29 7.7,27.6 8.8,25.2 10.2,27.4 12.6,28.6 "/>
<polygon class="st2" points="88.8,19 89.7,18.2 89.6,19.5 90.8,19.6 89.8,20.3 90.4,21.4 89.3,21 88.8,22.2 88.3,21 87.1,21.4 
	87.8,20.3 86.7,19.6 87.9,19.5 87.8,18.2 "/>
<polygon class="st2" points="104.2,15.4 105.4,14.3 105.2,15.9 106.8,16.1 105.5,17.1 106.3,18.4 104.8,18 104.2,19.5 103.6,18 
	102.1,18.4 102.9,17.1 101.5,16.1 103.1,15.9 103,14.3 "/>
<polygon class="st2" points="172.1,23.1 173.3,22 173.2,23.6 174.8,23.8 173.4,24.7 174.2,26.1 172.7,25.7 172.1,27.1 171.5,25.7 
	170,26.1 170.8,24.7 169.5,23.8 171,23.6 170.9,22 "/>
<polygon class="st2" points="54.9,32.9 56.1,31.8 56,33.4 57.6,33.6 56.2,34.5 57,35.9 55.5,35.5 54.9,37 54.3,35.5 52.8,35.9 
	53.6,34.5 52.3,33.6 53.9,33.4 53.7,31.8 "/>
<polygon class="st2" points="131.4,7.8 132.6,6.7 132.5,8.3 134.1,8.5 132.7,9.4 133.5,10.8 132,10.4 131.4,11.9 130.8,10.4 
	129.3,10.8 130.1,9.4 128.8,8.5 130.4,8.3 130.2,6.7 "/>
</svg>
