<?xml version="1.0" encoding="utf-8"?>
<!-- Generator: Adobe Illustrator 24.0.0, SVG Export Plug-In . SVG Version: 6.00 Build 0)  -->
<svg version="1.1" id="Layer_1" xmlns="http://www.w3.org/2000/svg" xmlns:xlink="http://www.w3.org/1999/xlink" x="0px" y="0px"
	 viewBox="0 0 400 300" style="enable-background:new 0 0 400 300;" xml:space="preserve">
<style type="text/css">
	.st0{fill:#E2EEDB;}
	.st1{fill:#878A8C;}
	.st2{font-family:'OpenSans';}
	.st3{font-size:6px;}
	.st4{font-family:'ArialMT';}
	.st5{font-family:'AdobeMyungjoStd-Medium-KSCpc-EUC-H';}
	.st6{fill:#FCC103;}
	.st7{opacity:0.54;fill:url(#SVGID_1_);enable-background:new    ;}
	.st8{opacity:0.54;fill:url(#SVGID_2_);enable-background:new    ;}
	.st9{fill:#FFFFFF;}
	.st10{font-size:6.21px;}
	.st11{font-size:10.9243px;}
	.st12{fill:#42DABF;}
	.st13{opacity:0.54;fill:url(#SVGID_3_);enable-background:new    ;}
	.st14{opacity:0.54;fill:url(#SVGID_4_);enable-background:new    ;}
	.st15{fill:#1ED6A5;}
	.st16{font-size:6.2147px;}
	.st17{fill:#35BAE9;}
	.st18{opacity:0.54;fill:url(#SVGID_5_);enable-background:new    ;}
	.st19{opacity:0.54;fill:url(#SVGID_6_);enable-background:new    ;}
	.st20{fill:#9B55E5;}
	.st21{opacity:0.54;fill:url(#SVGID_7_);enable-background:new    ;}
	.st22{opacity:0.54;fill:url(#SVGID_8_);enable-background:new    ;}
	.st23{fill:#B9C1C6;}
	.st24{font-family:'Batang';}
	.st25{font-size:12.3608px;}
	.st26{font-size:5.6036px;}
	.st27{fill:#FF7B03;}
	.st28{font-size:4.397px;}
	.st29{fill:#F9327A;}
	.st30{font-size:13.2209px;}
	.st31{font-size:7.0124px;}
	.st32{font-size:3.7688px;}
	.st33{opacity:0.92;fill:url(#SVGID_9_);enable-background:new    ;}
	.st34{opacity:0.92;fill:url(#SVGID_10_);enable-background:new    ;}
	.st35{fill:none;}
	.st36{font-size:5.9203px;}
	.st37{font-size:4.6823px;}
	.st38{font-size:11.8406px;}
	.st39{font-size:9.5229px;}
	.st40{font-size:9.0417px;}
	.st41{font-size:5.295px;}
	.st42{fill:#CE2469;}
	.st43{fill:#6A30B5;}
	.st44{fill:#1891B2;}
	.st45{fill:#1AA086;}
	.st46{fill:none;stroke:#9B55E5;stroke-miterlimit:10;}
	.st47{fill:#F97F06;}
</style>
<rect x="0.5" y="0.5" class="st0" width="400" height="300"/>
<g>
	<text transform="matrix(0.9654 0 0 1 278.6528 104.6748)" class="st1 st2 st3">2005. 08 ~ 2011. 02</text>
	<text transform="matrix(0.9654 0 0 1 285.9902 119.0747)" class="st1 st4 st3">LCD </text>
	<text transform="matrix(0.9654 0 0 1 299.2158 119.0747)" class="st1 st5 st3">품질검사</text>
	<text transform="matrix(0.9654 0 0 1 288.0176 126.2749)" class="st1 st5 st3">직급</text>
	<text transform="matrix(0.9654 0 0 1 299.6025 126.2749)" class="st1 st4 st3"> - </text>
	<text transform="matrix(0.9654 0 0 1 304.7188 126.2749)" class="st1 st5 st3">기사</text>
	<text transform="matrix(0.9654 0 0 1 319.8755 126.2749)" class="st1 st2 st3"> </text>
	<g>
		<rect x="285.6" y="25.1" class="st6" width="38.3" height="20.7"/>
		
			<radialGradient id="SVGID_1_" cx="158.4597" cy="-322.6319" r="0.3006" gradientTransform="matrix(0.8726 0 0 -0.9039 12.2466 -330.6878)" gradientUnits="userSpaceOnUse">
			<stop  offset="0" style="stop-color:#000000"/>
			<stop  offset="1" style="stop-color:#FFFFFF"/>
		</radialGradient>
		<ellipse class="st7" cx="304.7" cy="37.4" rx="7.2" ry="7.4"/>
		
			<radialGradient id="SVGID_2_" cx="158.58" cy="-322.6319" r="0.3006" gradientTransform="matrix(0.8726 0 0 -0.9039 12.2466 -330.6878)" gradientUnits="userSpaceOnUse">
			<stop  offset="0" style="stop-color:#000000"/>
			<stop  offset="1" style="stop-color:#FFFFFF"/>
		</radialGradient>
		<ellipse class="st8" cx="304.7" cy="74.9" rx="4.5" ry="4.6"/>
		<ellipse class="st9" cx="304.7" cy="35.7" rx="6.6" ry="6.8"/>
		<path class="st6" d="M307.7,35.7c0-1.7-1.4-3.1-3-3.1c-1.7,0-3,1.4-3,3.1c0,1.7,1.4,3.1,3,3.1S307.7,37.4,307.7,35.7z"/>
		<rect x="303.6" y="39.9" class="st9" width="2.3" height="31.8"/>
		<path class="st6" d="M307.7,70.6c-1.7-1.7-4.4-1.7-6,0c-1.7,1.7-1.7,4.6,0,6.2c1.7,1.7,4.4,1.7,6,0
			C309.4,75.2,309.4,72.3,307.7,70.6z"/>
		<text transform="matrix(0.9654 0 0 1 290.0708 88.2759)" class="st6 st4 st10">LG Display</text>
		<text transform="matrix(0.9654 0 0 1 292.6704 20.3608)" class="st6 st2 st11">2005</text>
	</g>
</g>
<g>
	<text transform="matrix(0.9654 0 0 1 342.7964 104.6748)" class="st1 st2 st3">2011. 3  ~ 2013. 2</text>
	<text transform="matrix(0.9654 0 0 1 340.2861 111.875)" class="st1 st5 st3">관광일본어통역학과</text>
	<text transform="matrix(0.9654 0 0 1 359.1113 126.2749)" class="st1 st4 st3">2012</text>
	<text transform="matrix(0.9654 0 0 1 351.8711 133.4746)" class="st1 st5 st3">국제인턴십</text>
	<text transform="matrix(0.9654 0 0 1 347.1406 140.6748)" class="st1 st5 st3">쿠마모토</text>
	<text transform="matrix(0.9654 0 0 1 370.3105 140.6748)" class="st1 st4 st3">4</text>
	<text transform="matrix(0.9654 0 0 1 373.4961 140.6748)" class="st1 st5 st3">개월</text>
	<g>
		<rect x="347.2" y="25.9" class="st12" width="38.3" height="20.7"/>
		<g>
			
				<radialGradient id="SVGID_3_" cx="155.9656" cy="-323.5884" r="0.3006" gradientTransform="matrix(0.8726 0 0 -0.9039 12.2466 -330.6878)" gradientUnits="userSpaceOnUse">
				<stop  offset="0" style="stop-color:#000000"/>
				<stop  offset="1" style="stop-color:#FFFFFF"/>
			</radialGradient>
			<ellipse class="st13" cx="366.9" cy="38.3" rx="7.2" ry="7.4"/>
			
				<radialGradient id="SVGID_4_" cx="155.9656" cy="-323.5884" r="0.3006" gradientTransform="matrix(0.8726 0 0 -0.9039 12.2466 -330.6878)" gradientUnits="userSpaceOnUse">
				<stop  offset="0" style="stop-color:#000000"/>
				<stop  offset="1" style="stop-color:#FFFFFF"/>
			</radialGradient>
			<ellipse class="st14" cx="366.8" cy="75.8" rx="4.5" ry="4.6"/>
			<ellipse class="st9" cx="365.1" cy="36.5" rx="6.6" ry="6.8"/>
			<path class="st12" d="M368.1,36.5c0-1.7-1.4-3.1-3-3.1c-1.7,0-3,1.4-3,3.1c0,1.7,1.4,3.1,3,3.1C366.8,39.6,368.1,38.3,368.1,36.5
				z"/>
			<rect x="363.8" y="40.8" class="st9" width="2.3" height="31.8"/>
			<ellipse class="st12" cx="365.1" cy="74.6" rx="4.3" ry="4.5"/>
		</g>
		<g>
			<text transform="matrix(0.9654 0 0 1 348.3159 89.1401)" class="st15 st5 st16">영진전문대학</text>
			<text transform="matrix(0.9654 0 0 1 354.2529 21.2231)" class="st12 st2 st11">2011</text>
		</g>
	</g>
</g>
<g>
	<text transform="matrix(0.9654 0 0 1 288.7837 248.9326)" class="st1 st2 st3">2014 ~ 2020</text>
	<text transform="matrix(0.9654 0 0 1 283.957 256.1328)" class="st1 st5 st3">공연예술</text>
	<text transform="matrix(0.9654 0 0 1 307.1265 256.1328)" class="st1 st4 st3"> </text>
	<text transform="matrix(0.9654 0 0 1 308.7676 256.1328)" class="st1 st5 st3">조연출</text>
	<text transform="matrix(0.9654 0 0 1 278.1646 270.5327)" class="st1 st5 st3">뮤지컬</text>
	<text transform="matrix(0.9654 0 0 1 295.5415 270.5327)" class="st1 st4 st3"> </text>
	<text transform="matrix(0.9654 0 0 1 297.1826 270.5327)" class="st1 st5 st3">그여름동물원</text>
	<text transform="matrix(0.9654 0 0 1 281.0605 277.7324)" class="st1 st5 st3">뮤지컬</text>
	<text transform="matrix(0.9654 0 0 1 298.4375 277.7324)" class="st1 st4 st3"> </text>
	<text transform="matrix(0.9654 0 0 1 300.0786 277.7324)" class="st1 st5 st3">정글라이프</text>
	<text transform="matrix(0.9654 0 0 1 283.957 284.9326)" class="st1 st5 st3">뮤지컬</text>
	<text transform="matrix(0.9654 0 0 1 301.334 284.9326)" class="st1 st4 st3"> </text>
	<text transform="matrix(0.9654 0 0 1 302.9751 284.9326)" class="st1 st5 st3">인현왕후</text>
	<g>
		<rect x="286" y="174.9" class="st17" width="38.3" height="20.7"/>
		<g>
			
				<radialGradient id="SVGID_5_" cx="12.1839" cy="-488.4331" r="0.3006" gradientTransform="matrix(0.8726 0 0 -0.9039 12.2466 -330.6878)" gradientUnits="userSpaceOnUse">
				<stop  offset="0" style="stop-color:#000000"/>
				<stop  offset="1" style="stop-color:#FFFFFF"/>
			</radialGradient>
			<ellipse class="st18" cx="305.8" cy="187.3" rx="7.2" ry="7.4"/>
			
				<radialGradient id="SVGID_6_" cx="12.1839" cy="-488.4331" r="0.3006" gradientTransform="matrix(0.8726 0 0 -0.9039 12.2466 -330.6878)" gradientUnits="userSpaceOnUse">
				<stop  offset="0" style="stop-color:#000000"/>
				<stop  offset="1" style="stop-color:#FFFFFF"/>
			</radialGradient>
			<ellipse class="st19" cx="305.7" cy="224.8" rx="4.5" ry="4.6"/>
			<path class="st9" d="M310.6,185.5c0-3.8-2.9-6.8-6.6-6.8s-6.6,3-6.6,6.8s2.9,6.8,6.6,6.8C307.7,192.4,310.6,189.3,310.6,185.5z"
				/>
			<path class="st17" d="M307,185.5c0-1.7-1.4-3.1-3-3.1c-1.7,0-3,1.4-3,3.1c0,1.7,1.4,3.1,3,3.1C305.7,188.6,307,187.3,307,185.5z"
				/>
			<rect x="302.7" y="189.8" class="st9" width="2.3" height="31.8"/>
			<ellipse class="st17" cx="304" cy="223.6" rx="4.3" ry="4.5"/>
		</g>
		<text transform="matrix(0.9654 0 0 1 293.1948 238.1396)" class="st17 st5 st16">공연예술</text>
		<text transform="matrix(0.9654 0 0 1 294.3735 170.2227)" class="st17 st2 st11">2014</text>
	</g>
</g>
<g>
	<text transform="matrix(0.9654 0 0 1 340.9888 248.9326)" class="st1 st2 st3">2020. 12 ~ 2021.05</text>
	<text transform="matrix(0.9654 0 0 1 353.7324 256.1328)" class="st1 st5 st3">스마트</text>
	<text transform="matrix(0.9654 0 0 1 371.1094 256.1328)" class="st1 st4 st3"> </text>
	<text transform="matrix(0.9654 0 0 1 372.751 256.1328)" class="st1 st5 st3">웹</text>
	<text transform="matrix(0.9654 0 0 1 347.9395 263.3325)" class="st1 st5 st3">콘텐츠전문가</text>
	<text transform="matrix(0.9654 0 0 1 382.6934 263.3325)" class="st1 st4 st3"> </text>
	<text transform="matrix(0.9654 0 0 1 354.6973 270.5327)" class="st1 st5 st3">양성과정</text>
	<text transform="matrix(0.9654 0 0 1 351.7051 284.9326)" class="st1 st2 st3">2021. 4. 30</text>
	<text transform="matrix(0.9654 0 0 1 343.4023 292.1328)" class="st1 st5 st3">웹</text>
	<text transform="matrix(0.9654 0 0 1 349.1943 292.1328)" class="st1 st4 st3"> </text>
	<text transform="matrix(0.9654 0 0 1 350.8359 292.1328)" class="st1 st5 st3">디자인</text>
	<text transform="matrix(0.9654 0 0 1 368.2129 292.1328)" class="st1 st4 st3"> </text>
	<text transform="matrix(0.9654 0 0 1 369.7578 292.1328)" class="st1 st5 st3">기능사</text>
	<text transform="matrix(0.9654 0 0 1 387.8105 292.1328)" class="st1 st2 st3"> </text>
	<g>
		<rect x="347.2" y="174.9" class="st20" width="38.3" height="20.7"/>
		<g>
			
				<radialGradient id="SVGID_7_" cx="6.3643" cy="-488.4331" r="0.3006" gradientTransform="matrix(0.8726 0 0 -0.9039 12.2466 -330.6878)" gradientUnits="userSpaceOnUse">
				<stop  offset="0" style="stop-color:#000000"/>
				<stop  offset="1" style="stop-color:#FFFFFF"/>
			</radialGradient>
			<ellipse class="st21" cx="366.9" cy="187.3" rx="7.2" ry="7.4"/>
			
				<radialGradient id="SVGID_8_" cx="406.3183" cy="-614.5456" r="5.1231" gradientTransform="matrix(0.8726 0 0 -0.9039 12.2466 -330.6878)" gradientUnits="userSpaceOnUse">
				<stop  offset="0" style="stop-color:#000000"/>
				<stop  offset="1" style="stop-color:#FFFFFF"/>
			</radialGradient>
			<ellipse class="st22" cx="366.8" cy="224.8" rx="4.5" ry="4.6"/>
			<ellipse class="st9" cx="365.2" cy="185.5" rx="6.6" ry="6.8"/>
			<path class="st20" d="M368.1,185.5c0-1.7-1.4-3.1-3-3.1c-1.7,0-3,1.4-3,3.1c0,1.7,1.4,3.1,3,3.1
				C366.8,188.6,368.1,187.3,368.1,185.5z"/>
			<rect x="363.8" y="189.8" class="st9" width="2.3" height="31.8"/>
			<path class="st20" d="M368.2,220.5c-1.7-1.7-4.4-1.7-6,0c-1.7,1.7-1.7,4.6,0,6.2c1.7,1.7,4.4,1.7,6,0
				C369.9,225,369.9,222.2,368.2,220.5z"/>
		</g>
		<text transform="matrix(0.9654 0 0 1 345.3149 238.1396)" class="st20 st5 st16">국제컴퓨터학원</text>
		<text transform="matrix(0.9654 0 0 1 355.4951 170.2227)" class="st20 st2 st11">2020</text>
	</g>
</g>
<g>
	<g>
		<text transform="matrix(1 0 0 1 21.5262 273.2704)" class="st1 st5 st3">컴퓨터</text>
		<text transform="matrix(1 0 0 1 39.5262 273.2704)" class="st1 st4 st3"> </text>
		<text transform="matrix(1 0 0 1 41.2262 273.2704)" class="st1 st5 st3">활용능력</text>
		<text transform="matrix(1 0 0 1 65.2262 273.2704)" class="st1 st4 st3"> 2</text>
		<text transform="matrix(1 0 0 1 70.2262 273.2704)" class="st1 st5 st3">급</text>
		<text transform="matrix(1 0 0 1 32.1262 280.4704)" class="st1 st4 st3">2012.05.25</text>
		<text transform="matrix(1 0 0 1 27.8262 287.6704)" class="st1 st5 st3">대한상공회의소</text>
		<g>
			<path class="st6" d="M44.7,214.8c0.3,1-0.3,2-1.3,2.3s-2-0.3-2.3-1.3s0.3-2,1.3-2.3S44.4,213.8,44.7,214.8z"/>
			<path class="st6" d="M38.9,216.7c0.5,0.9,0.2,2-0.7,2.5s-2,0.2-2.5-0.7s-0.2-2,0.7-2.5C37.2,215.5,38.4,215.8,38.9,216.7z"/>
			<path class="st6" d="M33.8,220c0.8,0.8,0.8,1.9,0,2.6s-1.9,0.8-2.6,0s-0.8-1.9,0-2.6C31.9,219.3,33.1,219.3,33.8,220z"/>
			<path class="st6" d="M66.5,252.7c0.8,0.8,0.8,1.9,0,2.6c-0.8,0.8-1.9,0.8-2.6,0c-0.8-0.8-0.8-1.9,0-2.6
				C64.6,251.9,65.8,251.9,66.5,252.7z"/>
			<path class="st6" d="M29.8,224.5c0.9,0.5,1.2,1.6,0.7,2.5s-1.6,1.2-2.5,0.7s-1.2-1.6-0.7-2.5C27.8,224.2,28.9,223.9,29.8,224.5z"
				/>
			<path class="st23" d="M69.8,247.6c0.9,0.5,1.2,1.6,0.7,2.5s-1.6,1.2-2.5,0.7s-1.2-1.6-0.7-2.5C67.8,247.3,68.9,247.1,69.8,247.6z
				"/>
			<path class="st6" d="M27,229.8c1,0.3,1.6,1.3,1.3,2.3c-0.3,1-1.3,1.6-2.3,1.3s-1.6-1.3-1.3-2.3C25,230.2,26,229.6,27,229.8z"/>
			<path class="st23" d="M71.7,241.8c1,0.3,1.6,1.3,1.3,2.3c-0.3,1-1.3,1.6-2.3,1.3s-1.6-1.3-1.3-2.3
				C69.7,242.1,70.7,241.6,71.7,241.8z"/>
			<path class="st6" d="M25.7,235.8c1,0,1.9,0.8,1.9,1.9c0,1-0.8,1.9-1.9,1.9s-1.9-0.8-1.9-1.9S24.7,235.8,25.7,235.8z"/>
			<circle class="st23" cx="72" cy="237.6" r="1.9"/>
			<path class="st6" d="M26.1,241.8c1-0.3,2,0.3,2.3,1.3s-0.3,2-1.3,2.3s-2-0.3-2.3-1.3C24.4,243.1,25.1,242.1,26.1,241.8z"/>
			<path class="st23" d="M70.7,229.8c1-0.3,2,0.3,2.3,1.3s-0.3,2-1.3,2.3s-2-0.3-2.3-1.3C69.2,231.1,69.7,230.1,70.7,229.8z"/>
			<path class="st6" d="M27.9,247.6c0.9-0.5,2-0.2,2.5,0.7s0.2,2-0.7,2.5s-2,0.2-2.5-0.7C26.7,249.2,27,248.1,27.9,247.6z"/>
			<path class="st23" d="M68,224.5c0.9-0.5,2-0.2,2.5,0.7s0.2,2-0.7,2.5c-0.9,0.5-2,0.2-2.5-0.7S67.1,225,68,224.5z"/>
			<path class="st6" d="M31.2,252.7c0.8-0.8,1.9-0.8,2.6,0c0.8,0.8,0.8,1.9,0,2.6c-0.8,0.8-1.9,0.8-2.6,0
				C30.5,254.6,30.5,253.4,31.2,252.7z"/>
			<path class="st23" d="M63.9,220c0.8-0.8,1.9-0.8,2.6,0c0.8,0.8,0.8,1.9,0,2.6c-0.8,0.8-1.9,0.8-2.6,0
				C63.2,221.8,63.2,220.7,63.9,220z"/>
			<path class="st6" d="M35.7,256.7c0.5-0.9,1.6-1.2,2.5-0.7c0.9,0.5,1.2,1.6,0.7,2.5s-1.6,1.2-2.5,0.7
				C35.5,258.8,35.2,257.6,35.7,256.7z"/>
			<path class="st6" d="M41.1,259.5c0.3-1,1.3-1.6,2.3-1.3s1.6,1.3,1.3,2.3s-1.3,1.6-2.3,1.3S40.8,260.5,41.1,259.5z"/>
			<path class="st23" d="M50.7,214.5c0,1-0.8,1.9-1.9,1.9c-1,0-1.9-0.8-1.9-1.9s0.8-1.9,1.9-1.9C49.9,212.7,50.7,213.5,50.7,214.5z"
				/>
			<path class="st6" d="M50.7,260.7c0,1-0.8,1.9-1.9,1.9c-1,0-1.9-0.8-1.9-1.9c0-1,0.8-1.9,1.9-1.9
				C49.9,258.9,50.7,259.7,50.7,260.7z"/>
			<path class="st6" d="M56.7,259.5c0.3,1-0.3,2-1.3,2.3s-2-0.3-2.3-1.3s0.3-2,1.3-2.3C55.3,257.9,56.4,258.5,56.7,259.5z"/>
			<path class="st6" d="M62.1,256.7c0.5,0.9,0.2,2-0.7,2.5s-2,0.2-2.5-0.7c-0.5-0.9-0.2-2,0.7-2.5C60.4,255.5,61.5,255.8,62.1,256.7
				z"/>
			<path class="st23" d="M58.8,216.7c0.5-0.9,1.6-1.2,2.5-0.7s1.2,1.6,0.7,2.5s-1.6,1.2-2.5,0.7S58.3,217.6,58.8,216.7z"/>
			<path class="st23" d="M53.1,214.8c0.3-1,1.3-1.6,2.3-1.3s1.6,1.3,1.3,2.3s-1.3,1.6-2.3,1.3C53.4,216.8,52.8,215.8,53.1,214.8z"/>
			<g>
				<text transform="matrix(1 0 0 1 36.2066 245.9471)" class="st6 st24 st25">65%</text>
				<g>
					<text transform="matrix(1.17 0 0 1 40.0464 233.3687)" class="st1 st24 st26">Excel</text>
				</g>
			</g>
		</g>
	</g>
	<g>
		<path class="st23" d="M221.7,214.5c0,1-0.8,1.9-1.9,1.9s-1.9-0.8-1.9-1.9s0.8-1.9,1.9-1.9S221.7,213.4,221.7,214.5z"/>
		<path class="st27" d="M221.7,260.7c0,1-0.8,1.9-1.9,1.9s-1.9-0.8-1.9-1.9c0-1,0.8-1.9,1.9-1.9S221.7,259.7,221.7,260.7z"/>
		<path class="st27" d="M215.7,214.8c0.3,1-0.3,2-1.3,2.3s-2-0.3-2.3-1.3s0.3-2,1.3-2.3S215.4,213.8,215.7,214.8z"/>
		<path class="st27" d="M227.7,259.5c0.3,1-0.3,2-1.3,2.3s-2-0.3-2.3-1.3s0.3-2,1.3-2.3C226.3,257.9,227.4,258.5,227.7,259.5z"/>
		<path class="st27" d="M209.9,216.6c0.5,0.9,0.2,2-0.7,2.5s-2,0.2-2.5-0.7s-0.2-2,0.7-2.5C208.2,215.4,209.4,215.7,209.9,216.6z"/>
		<path class="st27" d="M233.1,256.7c0.5,0.9,0.2,2-0.7,2.5s-2,0.2-2.5-0.7c-0.5-0.9-0.2-2,0.7-2.5
			C231.4,255.5,232.5,255.8,233.1,256.7z"/>
		<path class="st27" d="M204.8,220c0.8,0.8,0.8,1.9,0,2.6s-1.9,0.8-2.6,0c-0.8-0.8-0.8-1.9,0-2.6C202.9,219.2,204.1,219.2,204.8,220
			z"/>
		<path class="st23" d="M237.5,252.6c0.8,0.8,0.8,1.9,0,2.6c-0.8,0.8-1.9,0.8-2.6,0c-0.8-0.8-0.8-1.9,0-2.6
			C235.6,251.9,236.8,251.9,237.5,252.6z"/>
		<path class="st27" d="M200.8,224.4c0.9,0.5,1.2,1.6,0.7,2.5s-1.6,1.2-2.5,0.7s-1.2-1.6-0.7-2.5S199.9,223.9,200.8,224.4z"/>
		<path class="st23" d="M240.8,247.5c0.9,0.5,1.2,1.6,0.7,2.5s-1.6,1.2-2.5,0.7s-1.2-1.6-0.7-2.5S239.9,247,240.8,247.5z"/>
		<path class="st27" d="M198.6,229.3c1,0.3,1.6,1.3,1.3,2.3s-1.3,1.6-2.3,1.3s-1.6-1.3-1.3-2.3S197.6,229,198.6,229.3z"/>
		<path class="st23" d="M243.2,241.3c1,0.3,1.6,1.3,1.3,2.3s-1.3,1.6-2.3,1.3s-1.6-1.3-1.3-2.3S242.2,240.9,243.2,241.3z"/>
		<path class="st27" d="M196.7,235.7c1,0,1.9,0.8,1.9,1.9c0,1-0.8,1.9-1.9,1.9c-1,0-1.9-0.8-1.9-1.9
			C194.9,236.6,195.7,235.7,196.7,235.7z"/>
		<circle class="st23" cx="243" cy="237.6" r="1.9"/>
		<path class="st27" d="M197.1,241.8c1-0.3,2,0.3,2.3,1.3s-0.3,2-1.3,2.3s-2-0.3-2.3-1.3C195.4,243.1,196.1,242.1,197.1,241.8z"/>
		<path class="st23" d="M241.7,229.8c1-0.3,2,0.3,2.3,1.3s-0.3,2-1.3,2.3s-2-0.3-2.3-1.3C240.2,231.1,240.7,230.1,241.7,229.8z"/>
		<path class="st27" d="M198.9,247.5c0.9-0.5,2-0.2,2.5,0.7s0.2,2-0.7,2.5s-2,0.2-2.5-0.7C197.7,249.2,198,248,198.9,247.5z"/>
		<path class="st23" d="M239,224.4c0.9-0.5,2-0.2,2.5,0.7s0.2,2-0.7,2.5s-2,0.2-2.5-0.7S238.1,224.9,239,224.4z"/>
		<path class="st27" d="M202.2,252.6c0.8-0.8,1.9-0.8,2.6,0c0.8,0.8,0.8,1.9,0,2.6s-1.9,0.8-2.6,0
			C201.5,254.6,201.5,253.4,202.2,252.6z"/>
		<path class="st23" d="M234.9,220c0.8-0.8,1.9-0.8,2.6,0c0.8,0.8,0.8,1.9,0,2.6c-0.8,0.8-1.9,0.8-2.6,0
			C234.2,221.8,234.2,220.6,234.9,220z"/>
		<path class="st27" d="M206.7,256.7c0.5-0.9,1.6-1.2,2.5-0.7c0.9,0.5,1.2,1.6,0.7,2.5s-1.6,1.2-2.5,0.7S206.2,257.6,206.7,256.7z"
			/>
		<path class="st23" d="M229.8,216.6c0.5-0.9,1.6-1.2,2.5-0.7s1.2,1.6,0.7,2.5s-1.6,1.2-2.5,0.7
			C229.6,218.7,229.3,217.5,229.8,216.6z"/>
		<path class="st27" d="M212.1,259.5c0.3-1,1.3-1.6,2.3-1.3c1,0.3,1.6,1.3,1.3,2.3s-1.3,1.6-2.3,1.3
			C212.4,261.5,211.8,260.5,212.1,259.5z"/>
		<path class="st23" d="M224.1,214.8c0.3-1,1.3-1.6,2.3-1.3s1.6,1.3,1.3,2.3s-1.3,1.6-2.3,1.3S223.8,215.7,224.1,214.8z"/>
		<text transform="matrix(1 0 0 1 208.0472 245.7231)" class="st27 st2 st25">65%</text>
		<g>
			<text transform="matrix(1 0 0 1 213.2611 228.5229)" class="st1 st5 st28">포토샵</text>
			<text transform="matrix(1 0 0 1 226.4611 228.5229)" class="st1 st4 st28"> </text>
			<text transform="matrix(1 0 0 1 204.4671 233.7993)" class="st1 st5 st28">일러스트레이터</text>
		</g>
	</g>
	<g>
		<text transform="matrix(1 0 0 1 96.8387 273.201)" class="st1 st2 st3">JLPT N2</text>
		<text transform="matrix(1 0 0 1 90.5387 280.401)" class="st1 st2 st3">2013. 01. 27</text>
		<text transform="matrix(1 0 0 1 84.4387 287.601)" class="st1 st5 st3">필요시</text>
		<text transform="matrix(1 0 0 1 102.4387 287.601)" class="st1 st4 st3"> </text>
		<text transform="matrix(1 0 0 1 104.1387 287.601)" class="st1 st5 st3">취득</text>
		<text transform="matrix(1 0 0 1 116.1387 287.601)" class="st1 st4 st3"> </text>
		<text transform="matrix(1 0 0 1 117.7387 287.601)" class="st1 st5 st3">가능</text>
		<g>
			<circle class="st23" cx="107.4" cy="214.5" r="1.9"/>
			<path class="st29" d="M109.3,260.7c0,1-0.8,1.9-1.9,1.9c-1,0-1.9-0.8-1.9-1.9c0-1,0.8-1.9,1.9-1.9
				C108.5,258.9,109.3,259.7,109.3,260.7z"/>
			<path class="st29" d="M103.3,214.8c0.3,1-0.3,2-1.3,2.3s-2-0.3-2.3-1.3s0.3-2,1.3-2.3S103,213.8,103.3,214.8z"/>
			<path class="st29" d="M115.2,259.5c0.3,1-0.3,2-1.3,2.3s-2-0.3-2.3-1.3s0.3-2,1.3-2.3C114,257.9,115,258.5,115.2,259.5z"/>
			<path class="st29" d="M97.5,216.7c0.5,0.9,0.2,2-0.7,2.5c-0.9,0.5-2,0.2-2.5-0.7s-0.2-2,0.7-2.5C95.9,215.5,97,215.8,97.5,216.7z
				"/>
			<path class="st29" d="M120.6,256.7c0.5,0.9,0.2,2-0.7,2.5c-0.9,0.5-2,0.2-2.5-0.7c-0.5-0.9-0.2-2,0.7-2.5
				C119,255.5,120.1,255.8,120.6,256.7z"/>
			<path class="st29" d="M92.4,220c0.8,0.8,0.8,1.9,0,2.6s-1.9,0.8-2.6,0s-0.8-1.9,0-2.6C90.5,219.3,91.7,219.3,92.4,220z"/>
			<path class="st29" d="M125.1,252.7c0.8,0.8,0.8,1.9,0,2.6c-0.8,0.7-1.9,0.8-2.6,0s-0.8-1.9,0-2.6
				C123.2,251.9,124.4,251.9,125.1,252.7z"/>
			<path class="st29" d="M88.3,224.5c0.9,0.5,1.2,1.6,0.7,2.5s-1.6,1.2-2.5,0.7s-1.2-1.6-0.7-2.5C86.3,224.2,87.4,223.9,88.3,224.5z
				"/>
			<path class="st29" d="M128.4,247.6c0.9,0.5,1.2,1.6,0.7,2.5s-1.6,1.2-2.5,0.7s-1.2-1.6-0.7-2.5
				C126.4,247.3,127.5,247.1,128.4,247.6z"/>
			<path class="st29" d="M85.6,229.8c1,0.3,1.6,1.3,1.3,2.3c-0.3,1-1.3,1.6-2.3,1.3s-1.6-1.3-1.3-2.3
				C83.6,230.2,84.6,229.6,85.6,229.8z"/>
			<path class="st23" d="M130.3,241.8c1,0.3,1.6,1.3,1.3,2.3s-1.3,1.6-2.3,1.3s-1.6-1.3-1.3-2.3
				C128.2,242.1,129.3,241.6,130.3,241.8z"/>
			<circle class="st29" cx="84.3" cy="237.6" r="1.9"/>
			<path class="st23" d="M130.5,235.8c1,0,1.9,0.8,1.9,1.9c0,1-0.8,1.9-1.9,1.9c-1,0-1.9-0.8-1.9-1.9
				C128.7,236.6,129.5,235.8,130.5,235.8z"/>
			<path class="st29" d="M84.6,241.8c1-0.3,2,0.3,2.3,1.3s-0.3,2-1.3,2.3s-2-0.3-2.3-1.3C83,243.1,83.6,242.1,84.6,241.8z"/>
			<path class="st23" d="M129.3,229.8c1-0.3,2,0.3,2.3,1.3s-0.3,2-1.3,2.3s-2-0.3-2.3-1.3S128.3,230.1,129.3,229.8z"/>
			<path class="st29" d="M86.5,247.6c0.9-0.5,2-0.2,2.5,0.7s0.2,2-0.7,2.5s-2,0.2-2.5-0.7C85.3,249.2,85.6,248.1,86.5,247.6z"/>
			<path class="st23" d="M126.5,224.5c0.9-0.5,2-0.2,2.5,0.7s0.2,2-0.7,2.5c-0.9,0.5-2,0.2-2.5-0.7S125.6,225,126.5,224.5z"/>
			<path class="st29" d="M89.8,252.7c0.8-0.8,1.9-0.8,2.6,0c0.8,0.8,0.8,1.9,0,2.6c-0.8,0.7-1.9,0.8-2.6,0
				C89,254.6,89,253.4,89.8,252.7z"/>
			<path class="st23" d="M122.5,220c0.8-0.8,1.9-0.8,2.6,0s0.8,1.9,0,2.6s-1.9,0.8-2.6,0S121.7,220.7,122.5,220z"/>
			<path class="st29" d="M94.3,256.7c0.5-0.9,1.6-1.2,2.5-0.7c0.9,0.5,1.2,1.6,0.7,2.5s-1.6,1.2-2.5,0.7
				C94,258.8,93.7,257.6,94.3,256.7z"/>
			<path class="st23" d="M117.4,216.7c0.5-0.9,1.6-1.2,2.5-0.7s1.2,1.6,0.7,2.5s-1.6,1.2-2.5,0.7S116.9,217.6,117.4,216.7z"/>
			<path class="st29" d="M99.6,259.5c0.3-1,1.3-1.6,2.3-1.3c1,0.3,1.6,1.3,1.3,2.3c-0.3,1-1.3,1.6-2.3,1.3
				C100,261.5,99.4,260.5,99.6,259.5z"/>
			<ellipse class="st23" cx="113.4" cy="215.3" rx="1.9" ry="1.9"/>
		</g>
		<g>
			<text transform="matrix(1 0 0 1 94.4178 245.7561)" class="st29 st2 st30">70%</text>
			<g>
				<text transform="matrix(1 0 0 1 95.9168 232.0461)" class="st1 st5 st31">일본어</text>
			</g>
		</g>
	</g>
	<g>
		<text transform="matrix(1 0 0 1 140.9733 273.1406)" class="st1 st5 st3">웹</text>
		<text transform="matrix(1 0 0 1 146.9733 273.1406)" class="st1 st4 st3"> </text>
		<text transform="matrix(1 0 0 1 148.6733 273.1406)" class="st1 st5 st3">디자인</text>
		<text transform="matrix(1 0 0 1 166.6733 273.1406)" class="st1 st4 st3"> </text>
		<text transform="matrix(1 0 0 1 168.2733 273.1406)" class="st1 st5 st3">기능사</text>
		<text transform="matrix(1 0 0 1 146.8733 280.3406)" class="st1 st4 st3">2021.04.30</text>
		<g>
			<path class="st23" d="M184.6,247.5c0.9,0.5,1.2,1.6,0.7,2.5s-1.6,1.2-2.5,0.7s-1.2-1.6-0.7-2.5S183.7,247,184.6,247.5z"/>
			<path class="st23" d="M187.1,241.3c1,0.3,1.6,1.3,1.3,2.3s-1.3,1.6-2.3,1.3s-1.6-1.3-1.3-2.3S186.1,240.9,187.1,241.3z"/>
			<circle class="st23" cx="186.8" cy="237.6" r="1.9"/>
			<path class="st23" d="M185.5,229.8c1-0.3,2,0.3,2.3,1.3s-0.3,2-1.3,2.3s-2-0.3-2.3-1.3S184.5,230.1,185.5,229.8z"/>
			<path class="st23" d="M182.7,224.4c0.9-0.5,2-0.2,2.5,0.7s0.2,2-0.7,2.5s-2,0.2-2.5-0.7S181.9,224.9,182.7,224.4z"/>
			<path class="st23" d="M165.5,214.5c0,1-0.8,1.9-1.9,1.9c-1,0-1.9-0.8-1.9-1.9s0.8-1.9,1.9-1.9S165.5,213.4,165.5,214.5z"/>
			<path class="st23" d="M165.5,260.7c0,1-0.8,1.9-1.9,1.9c-1,0-1.9-0.8-1.9-1.9c0-1,0.8-1.9,1.9-1.9
				C164.7,258.8,165.5,259.7,165.5,260.7z"/>
			<path class="st17" d="M159.5,214.8c0.3,1-0.3,2-1.3,2.3s-2-0.3-2.3-1.3s0.3-2,1.3-2.3S159.2,213.8,159.5,214.8z"/>
			<path class="st23" d="M171.4,259.5c0.3,1-0.3,2-1.3,2.3s-2-0.3-2.3-1.3s0.3-2,1.3-2.3C170.2,257.9,171.2,258.5,171.4,259.5z"/>
			<path class="st17" d="M153.7,216.6c0.5,0.9,0.2,2-0.7,2.5s-2,0.2-2.5-0.7s-0.2-2,0.7-2.5C152.1,215.4,153.2,215.7,153.7,216.6z"
				/>
			<path class="st23" d="M176.8,256.7c0.5,0.9,0.2,2-0.7,2.5s-2,0.2-2.5-0.7s-0.2-2,0.7-2.5S176.3,255.8,176.8,256.7z"/>
			<path class="st17" d="M148.6,220c0.8,0.8,0.8,1.9,0,2.6c-0.8,0.8-1.9,0.8-2.6,0s-0.8-1.9,0-2.6S147.9,219.2,148.6,220z"/>
			<path class="st23" d="M181.4,252.6c0.8,0.8,0.8,1.9,0,2.6c-0.8,0.8-1.9,0.8-2.6,0c-0.8-0.8-0.8-1.9,0-2.6
				C179.4,251.9,180.6,251.9,181.4,252.6z"/>
			<path class="st17" d="M144.5,224.4c0.9,0.5,1.2,1.6,0.7,2.5s-1.6,1.2-2.5,0.7s-1.2-1.6-0.7-2.5S143.7,223.9,144.5,224.4z"/>
			<path class="st17" d="M142.4,229.3c1,0.3,1.6,1.3,1.3,2.3s-1.3,1.6-2.3,1.3s-1.6-1.3-1.3-2.3C140.3,229.6,141.4,229,142.4,229.3z
				"/>
			<path class="st17" d="M140.5,235.7c1,0,1.9,0.8,1.9,1.9c0,1-0.8,1.9-1.9,1.9c-1,0-1.9-0.8-1.9-1.9
				C138.7,236.6,139.5,235.7,140.5,235.7z"/>
			<path class="st17" d="M140.8,241.8c1-0.3,2,0.3,2.3,1.3s-0.3,2-1.3,2.3s-2-0.3-2.3-1.3C139.3,243.1,139.8,242.1,140.8,241.8z"/>
			<path class="st17" d="M142.7,247.5c0.9-0.5,2-0.2,2.5,0.7s0.2,2-0.7,2.5s-2,0.2-2.5-0.7C141.5,249.2,141.8,248,142.7,247.5z"/>
			<path class="st17" d="M146,252.6c0.8-0.8,1.9-0.8,2.6,0c0.8,0.8,0.8,1.9,0,2.6c-0.8,0.8-1.9,0.8-2.6,0
				C145.2,254.6,145.2,253.4,146,252.6z"/>
			<path class="st23" d="M178.7,220c0.8-0.8,1.9-0.8,2.6,0c0.8,0.8,0.8,1.9,0,2.6c-0.8,0.8-1.9,0.8-2.6,0
				C178,221.8,178,220.6,178.7,220z"/>
			<path class="st17" d="M150.5,256.7c0.5-0.9,1.6-1.2,2.5-0.7c0.9,0.5,1.2,1.6,0.7,2.5s-1.6,1.2-2.5,0.7S149.9,257.6,150.5,256.7z"
				/>
			<path class="st23" d="M173.6,216.6c0.5-0.9,1.6-1.2,2.5-0.7s1.2,1.6,0.7,2.5s-1.6,1.2-2.5,0.7
				C173.4,218.7,173.1,217.5,173.6,216.6z"/>
			<path class="st17" d="M155.9,259.5c0.3-1,1.3-1.6,2.3-1.3c1,0.3,1.6,1.3,1.3,2.3s-1.3,1.6-2.3,1.3
				C156.2,261.5,155.6,260.5,155.9,259.5z"/>
			<path class="st23" d="M167.8,214.8c0.3-1,1.3-1.6,2.3-1.3s1.6,1.3,1.3,2.3s-1.3,1.6-2.3,1.3C168.2,216.8,167.6,215.7,167.8,214.8
				z"/>
			<text transform="matrix(1 0 0 1 152.4231 246.979)" class="st17 st2 st25">70%</text>
			<g>
				<text transform="matrix(1 0 0 1 157.6965 226.3071)" class="st1 st4 st32">HTML</text>
				<text transform="matrix(1 0 0 1 159.8313 230.8296)" class="st1 st4 st32">CSS</text>
				<text transform="matrix(1 0 0 1 158.3254 235.3521)" class="st1 st4 st32">JAVA</text>
			</g>
		</g>
	</g>
</g>
<radialGradient id="SVGID_9_" cx="-227.7635" cy="-454.0269" r="0.4682" gradientTransform="matrix(1 0 0 -1 0 -330)" gradientUnits="userSpaceOnUse">
	<stop  offset="0" style="stop-color:#000000"/>
	<stop  offset="1" style="stop-color:#FFFFFF"/>
</radialGradient>
<path class="st33" d="M180.1,62.8c-11.1-11.1-26.5-18-43.5-18s-32.4,6.9-43.5,18s-18,26.5-18,43.5s6.9,32.4,18,43.5
	c11.1,11.1,26.5,18,43.5,18s32.4-6.9,43.5-18s18-26.5,18-43.5S191.2,73.9,180.1,62.8z M136.6,106.3L136.6,106.3L136.6,106.3
	L136.6,106.3z"/>
<ellipse class="st20" cx="99.8" cy="92.1" rx="39.2" ry="39.2"/>
<path class="st29" d="M145.5,159c-12.7,17.5-37.3,21.4-54.8,8.7c-14.1-10.3-19.4-28.2-14.2-44c1.2-3.7,3.1-7.4,5.5-10.8
	c12.7-17.5,37.3-21.4,54.8-8.7c0.1,0.1,0.1,0.1,0.2,0.2C154.4,117.1,158.2,141.5,145.5,159z"/>
<circle class="st6" cx="159.8" cy="136.2" r="39.2"/>
<ellipse class="st12" cx="174.2" cy="92.5" rx="39.2" ry="39.2"/>
<circle class="st17" cx="137.2" cy="65.2" r="39.2"/>
<path class="st17" d="M137.1,104.2c0,0.1-0.1,0.2-0.1,0.3c-21.5-0.1-39.1-17.6-39.1-39.1c0-4.3,0.7-8.5,2-12.4c3.9,0,8,0.7,12,2
	C132.5,61.5,143.8,83.6,137.1,104.2z"/>
<path class="st20" d="M137.1,104.2c0,0.1-0.1,0.2-0.1,0.3c-21.5-0.1-39.1-17.6-39.1-39.1c0-4.3,0.7-8.5,2-12.4c3.9,0,8,0.7,12,2
	C132.5,61.5,143.8,83.6,137.1,104.2z"/>
<radialGradient id="SVGID_10_" cx="-209.0343" cy="-473.6925" r="0.4682" gradientTransform="matrix(1 0 0 -1 0 -330)" gradientUnits="userSpaceOnUse">
	<stop  offset="0" style="stop-color:#000000"/>
	<stop  offset="1" style="stop-color:#FFFFFF"/>
</radialGradient>
<path class="st34" d="M168.1,85.2c-6.2-6.2-14.7-10-24.2-10s-18,3.8-24.2,10s-10,14.7-10,24.2s3.8,18,10,24.2s14.7,10,24.2,10
	s18-3.8,24.2-10s10-14.7,10-24.2S174.3,91.3,168.1,85.2z M143.8,109.4L143.8,109.4L143.8,109.4L143.8,109.4z"/>
<polygon class="st17" points="147,32.9 138.5,17.6 130.1,32.9 "/>
<polygon class="st20" points="70,71.5 52.9,74.9 64.8,87.7 "/>
<polygon class="st29" points="86.7,159.4 84.5,176.8 100.5,169.4 "/>
<polygon class="st6" points="168.6,171.3 184.5,178.6 182.4,161.3 "/>
<polygon class="st12" points="209.2,90.7 221.1,77.9 203.9,74.5 "/>
<g>
	<rect x="91" y="16.3" class="st35" width="38.4" height="19.3"/>
	<text transform="matrix(1 0 0 1 90.9821 20.5386)" class="st1 st2 st36">1987. 12. 24</text>
	<text transform="matrix(1 0 0 1 90.9821 27.6548)" class="st1 st5 st36">염소자리</text>
	<text transform="matrix(1 0 0 1 114.6745 27.6548)" class="st1 st2 st36"> .</text>
</g>
<g>
	<rect x="5.9" y="58.5" class="st35" width="49.7" height="19.2"/>
	<text transform="matrix(1 0 0 1 5.9258 63.7715)" class="st1 st2 st3">miko0324@naver.com</text>
</g>
<g>
	<rect x="36.9" y="143" class="st35" width="38.4" height="40.5"/>
	<text transform="matrix(1 0 0 1 36.8711 146.4844)" class="st1 st5 st37">웹</text>
	<text transform="matrix(1 0 0 1 41.5711 146.4844)" class="st1 st4 st37"> </text>
	<text transform="matrix(1 0 0 1 42.8711 146.4844)" class="st1 st5 st37">디자인</text>
	<text transform="matrix(1 0 0 1 56.8711 146.4844)" class="st1 st4 st37"> </text>
	<text transform="matrix(1 0 0 1 58.1711 146.4844)" class="st1 st5 st37">기능사</text>
	<text transform="matrix(1 0 0 1 72.2711 146.4844)" class="st1 st4 st37"> </text>
	<text transform="matrix(1 0 0 1 36.8711 152.1035)" class="st1 st4 st37">21.4.30</text>
	<text transform="matrix(1 0 0 1 36.8711 157.7227)" class="st1 st5 st37">컴퓨터활용능력</text>
	<text transform="matrix(1 0 0 1 69.6711 157.7227)" class="st1 st4 st37"> 2</text>
	<text transform="matrix(1 0 0 1 36.8711 163.3398)" class="st1 st5 st37">급</text>
	<text transform="matrix(1 0 0 1 36.8711 168.958)" class="st1 st4 st37">12.05.25</text>
	<text transform="matrix(1 0 0 1 36.8711 174.5781)" class="st1 st4 st37">JLPT N2</text>
	<text transform="matrix(1 0 0 1 36.8711 180.1963)" class="st1 st4 st37">12.1.27</text>
</g>
<text transform="matrix(1 0 0 1 194.2324 162.7529)" class="st1 st4 st3">1. </text>
<text transform="matrix(1 0 0 1 200.9324 162.7529)" class="st1 st5 st3">사진찍기</text>
<text transform="matrix(1 0 0 1 194.2324 169.9529)" class="st1 st4 st3">2. </text>
<text transform="matrix(1 0 0 1 200.9324 169.9529)" class="st1 st5 st3">악세사리</text>
<text transform="matrix(1 0 0 1 224.9324 169.9529)" class="st1 st4 st3"> </text>
<text transform="matrix(1 0 0 1 226.5324 169.9529)" class="st1 st5 st3">만들기</text>
<text transform="matrix(1 0 0 1 194.2324 177.1529)" class="st1 st4 st3">3. </text>
<text transform="matrix(1 0 0 1 200.9324 177.1529)" class="st1 st5 st3">공연관람</text>
<text transform="matrix(1 0 0 1 194.2324 184.3529)" class="st1 st4 st3">4. </text>
<text transform="matrix(1 0 0 1 200.9324 184.3529)" class="st1 st5 st3">혼자여행</text>
<g>
	<rect x="225.6" y="78.7" class="st35" width="38.4" height="19.3"/>
	<text transform="matrix(1 0 0 1 225.585 87.3467)" class="st1 st2 st38">O</text>
	<text transform="matrix(1 0 0 1 233.7324 87.3467)" class="st1 st5 st38">형</text>
</g>
<g>
	<text transform="matrix(1 0 0 1 23.7451 77.4502)" class="st1 st2 st39">E-mail</text>
</g>
<g>
	<text transform="matrix(1 0 0 1 60.4912 189.959)" class="st1 st4 st40">Process</text>
</g>
<g>
	<text transform="matrix(1 0 0 1 161.2969 190.5498)" class="st1 st2 st40">Hobby</text>
</g>
<g>
	<text transform="matrix(1 0 0 1 224.2686 73.8945)" class="st1 st2 st39">Blood type</text>
</g>
<g>
	<text transform="matrix(1 0 0 1 122.8965 14.1748)" class="st1 st2 st39">Birthday</text>
</g>
<g>
	<text transform="matrix(1 0 0 1 125.7471 136.1982)" class="st1 st2 st41">INFOGRAPHIC</text>
</g>
<path class="st42" d="M-42.1,122.1v-2.7c0-0.2-0.2-0.4-0.4-0.4h-7.8c-0.2,0-0.4,0.2-0.4,0.4v2.7h-5.2v11.7H-37v-11.7
	C-37,122.1-42.1,122.1-42.1,122.1z M-49.9,119.8h7v2.3h-7V119.8z M-39.1,126.5h-14.6v-1.2h14.6V126.5z"/>
<g>
	<g>
		<path class="st43" d="M-62.5,99.5v8.3h8.3C-54.2,103.2-57.9,99.5-62.5,99.5z"/>
	</g>
	<g>
		<path class="st43" d="M-64,109.2v-8.3c-4.6,0-8.3,3.7-8.3,8.3s3.7,8.3,8.3,8.3s8.3-3.7,8.3-8.3H-64z"/>
	</g>
</g>
<g>
	<g>
		<path class="st42" d="M107.1,149.1h-6c-0.3,0-0.6,0.3-0.6,0.6s0.3,0.6,0.6,0.6h6c0.3,0,0.6-0.3,0.6-0.6
			C107.7,149.4,107.4,149.1,107.1,149.1z"/>
	</g>
	<g>
		<path class="st42" d="M106.2,150.7h-4.3c-0.3,0-0.6,0.3-0.6,0.6s0.3,0.6,0.6,0.6h4.3c0.3,0,0.6-0.3,0.6-0.6
			C106.7,150.9,106.5,150.7,106.2,150.7z"/>
	</g>
	<path class="st42" d="M108.7,134.9c-1.4-1.3-3.4-1.9-5.3-1.7c-3.1,0.4-5.6,2.8-6,5.8c-0.3,2.2,0.5,4.4,2.2,5.9
		c0.8,0.8,1.2,1.5,1.2,2.3v0.2c0,0.3,0.3,0.6,0.6,0.6h5.7c0.3,0,0.6-0.3,0.6-0.6v-0.2c0-0.9,0.4-1.6,1.2-2.3c1.4-1.3,2.2-3.1,2.2-5
		C110.9,138,110.2,136.1,108.7,134.9z M107.1,139.2l-3.3,3.3c-0.4,0.4-0.9,0.4-1.3,0l-1.2-1.2c-0.6-0.6-0.2-1.4,0.6-1.4
		c0.2,0,0.5,0.1,0.6,0.3l0.7,0.7c0.1,0.1,0.3,0.1,0.4,0l2.7-2.4c0.1-0.1,0.3-0.2,0.5-0.2C107.2,138.1,107.5,138.8,107.1,139.2z"/>
</g>
<g>
	<rect x="134.5" y="47.8" class="st44" width="12.6" height="5.8"/>
	<rect x="131.6" y="52.9" class="st44" width="18.4" height="7"/>
	<rect x="137.1" y="43.8" class="st44" width="0.4" height="5.1"/>
	<rect x="139" y="43.8" class="st44" width="0.4" height="5.1"/>
	<rect x="141.8" y="43.8" class="st44" width="0.4" height="5.1"/>
	<rect x="143.6" y="43.8" class="st44" width="0.4" height="5.1"/>
	<path class="st44" d="M137.5,43.4c0,0.4-0.1,0.8-0.3,0.8s-0.3-0.5-0.3-0.8c0-0.4,0.2-0.7,0.3-0.8C137.4,42.7,137.5,43,137.5,43.4z"
		/>
	<path class="st44" d="M139.4,43.4c0,0.4-0.1,0.8-0.3,0.8s-0.3-0.5-0.3-0.8c0-0.4,0.2-0.7,0.3-0.8C139.2,42.7,139.4,43,139.4,43.4z"
		/>
	<path class="st44" d="M142.2,43.4c0,0.4-0.1,0.8-0.3,0.8s-0.3-0.5-0.3-0.8c0-0.4,0.2-0.7,0.3-0.8C142,42.7,142.1,43,142.2,43.4z"/>
	<path class="st44" d="M144.1,43.4c0,0.4-0.1,0.8-0.3,0.8s-0.3-0.5-0.3-0.8c0-0.4,0.2-0.7,0.3-0.8C143.9,42.7,144.1,43,144.1,43.4z"
		/>
</g>
<path class="st45" d="M192.5,95.2c-0.5,4.1-3,9.4-5.8,9.4s-5.3-5.2-5.8-9.4c-0.7-6.8,4.1-12.1,5.8-13.8
	C188.4,83.1,193.3,88.3,192.5,95.2z"/>
<polygon class="st35" points="43.7,162.7 35.2,162.7 35.2,162.7 "/>
<g>
	<rect x="77.2" y="82" class="st43" width="18.2" height="12"/>
	<polygon class="st46" points="86.3,93.5 77.2,82.2 95.3,82.2 	"/>
</g>
<polygon class="st47" points="165.7,156.5 171.4,159.5 170.3,153.1 175,148.6 168.5,147.7 165.7,141.9 162.8,147.7 156.4,148.6 
	161,153.1 159.9,159.5 "/>
<image style="overflow:visible;enable-background:new    ;" width="1920" height="2560" xlink:href="../../../../KakaoTalk_20210506_212747166.png"  transform="matrix(2.240059e-02 0 0 2.240059e-02 121.1455 71.209)">
</image>
</svg>
