<?xml version="1.0" encoding="utf-8"?>
<!-- Generator: Adobe Illustrator 24.0.0, SVG Export Plug-In . SVG Version: 6.00 Build 0)  -->
<svg version="1.1" id="Layer_1" xmlns="http://www.w3.org/2000/svg" xmlns:xlink="http://www.w3.org/1999/xlink" x="0px" y="0px"
	 viewBox="0 0 700 933" style="enable-background:new 0 0 700 933;" xml:space="preserve">
<style type="text/css">
	.st0{fill:#D8E7E5;stroke:#000000;stroke-miterlimit:10;}
	.st1{fill:#878A8C;}
	.st2{font-family:'OpenSans';}
	.st3{font-size:13.2322px;}
	.st4{font-family:'ArialMT';}
	.st5{font-family:'AdobeMyungjoStd-Medium-KSCpc-EUC-H';}
	.st6{fill:#FCC103;}
	.st7{opacity:0.54;fill:url(#SVGID_1_);enable-background:new    ;}
	.st8{opacity:0.54;fill:url(#SVGID_2_);enable-background:new    ;}
	.st9{fill:#FFFFFF;}
	.st10{font-size:13.6953px;}
	.st11{font-size:24.092px;}
	.st12{fill:#42DABF;}
	.st13{opacity:0.54;fill:url(#SVGID_3_);enable-background:new    ;}
	.st14{opacity:0.54;fill:url(#SVGID_4_);enable-background:new    ;}
	.st15{fill:#1ED6A5;}
	.st16{font-size:13.7056px;}
	.st17{fill:#35BAE9;}
	.st18{opacity:0.54;fill:url(#SVGID_5_);enable-background:new    ;}
	.st19{opacity:0.54;fill:url(#SVGID_6_);enable-background:new    ;}
	.st20{fill:#9B55E5;}
	.st21{opacity:0.54;fill:url(#SVGID_7_);enable-background:new    ;}
	.st22{opacity:0.54;fill:url(#SVGID_8_);enable-background:new    ;}
	.st23{font-size:12.751px;}
	.st24{fill:#B9C1C6;}
	.st25{font-family:'Batang';}
	.st26{font-size:26.2687px;}
	.st27{font-size:11.9085px;}
	.st28{fill:#FF7B03;}
	.st29{font-size:9.3443px;}
	.st30{fill:#F9327A;}
	.st31{font-size:28.0966px;}
	.st32{font-size:14.9025px;}
	.st33{font-size:8.0094px;}
	.st34{opacity:0.92;fill:url(#SVGID_9_);enable-background:new    ;}
	.st35{opacity:0.92;fill:url(#SVGID_10_);enable-background:new    ;}
	.st36{fill:none;}
	.st37{font-size:12.6647px;}
	.st38{font-size:12.8352px;}
	.st39{font-size:10.0163px;}
	.st40{font-size:25.3293px;}
	.st41{font-size:20.3714px;}
	.st42{font-size:19.3419px;}
	.st43{font-size:11.3271px;}
	.st44{fill:#CE2469;}
	.st45{fill:#1891B2;}
	.st46{fill:#1AA086;}
	.st47{fill:#6A30B5;}
	.st48{fill:none;stroke:#9B55E5;stroke-miterlimit:10;}
	.st49{fill:#F97F06;}
	.st50{font-family:'NotoSansKR-Regular-KSCpc-EUC-H';}
	.st51{font-size:23px;glyph-orientation-vertical:0;writing-mode:tb;}
	.st52{font-size:23px;glyph-orientation-vertical:1;writing-mode:tb;}
</style>
<rect x="0.5" y="0.5" class="st0" width="699" height="932"/>
<g>
	<text transform="matrix(0.9654 0 0 1 51.0112 832.0352)" class="st1 st2 st3">2005. 08 ~ 2011. 02</text>
	<text transform="matrix(0.9654 0 0 1 67.3262 863.835)" class="st1 st4 st3">LCD </text>
	<text transform="matrix(0.9654 0 0 1 96.3848 863.835)" class="st1 st5 st3">품질검사</text>
	<text transform="matrix(0.9654 0 0 1 71.7671 879.6348)" class="st1 st5 st3">직급</text>
	<text transform="matrix(0.9654 0 0 1 97.3501 879.6348)" class="st1 st4 st3"> - </text>
	<text transform="matrix(0.9654 0 0 1 108.645 879.6348)" class="st1 st5 st3">기사</text>
	<text transform="matrix(0.9654 0 0 1 141.9517 879.6348)" class="st1 st2 st3"> </text>
	<g>
		<rect x="66.3" y="656.5" class="st6" width="84.4" height="45.7"/>
		
			<radialGradient id="SVGID_1_" cx="-344.8608" cy="429.1237" r="0.6629" gradientTransform="matrix(0.8726 0 0 -0.9039 69.3279 902.9374)" gradientUnits="userSpaceOnUse">
			<stop  offset="0" style="stop-color:#000000"/>
			<stop  offset="1" style="stop-color:#FFFFFF"/>
		</radialGradient>
		<ellipse class="st7" cx="108.5" cy="683.7" rx="15.8" ry="16.4"/>
		
			<radialGradient id="SVGID_2_" cx="-344.5957" cy="429.1237" r="0.6629" gradientTransform="matrix(0.8726 0 0 -0.9039 69.3279 902.9374)" gradientUnits="userSpaceOnUse">
			<stop  offset="0" style="stop-color:#000000"/>
			<stop  offset="1" style="stop-color:#FFFFFF"/>
		</radialGradient>
		<ellipse class="st8" cx="108.5" cy="766.5" rx="9.8" ry="10.2"/>
		<ellipse class="st9" cx="108.5" cy="679.8" rx="14.6" ry="15.1"/>
		<path class="st6" d="M115.1,679.8c0-3.8-3-6.8-6.6-6.8c-3.7,0-6.6,3.1-6.6,6.8c0,3.8,3,6.8,6.6,6.8
			C112.1,686.7,115.1,683.7,115.1,679.8z"/>
		<rect x="106" y="689.2" class="st9" width="5" height="70.1"/>
		<path class="st6" d="M115.2,756.9c-3.7-3.8-9.7-3.8-13.3,0c-3.7,3.8-3.7,10.1,0,13.8c3.7,3.8,9.7,3.8,13.3,0
			C118.9,767,118.9,760.7,115.2,756.9z"/>
		<text transform="matrix(0.9654 0 0 1 76.1909 795.8691)" class="st6 st4 st10">LG Display</text>
		<text transform="matrix(0.9654 0 0 1 81.9233 646.0918)" class="st6 st2 st11">2005</text>
	</g>
</g>
<g>
	<text transform="matrix(0.9654 0 0 1 220.459 830.1348)" class="st1 st2 st3">2011. 3  ~ 2013. 2</text>
	<text transform="matrix(0.9654 0 0 1 214.8599 846.0352)" class="st1 st5 st3">관광일본어통역학과</text>
	<text transform="matrix(0.9654 0 0 1 256.3721 877.7344)" class="st1 st4 st3">2012</text>
	<text transform="matrix(0.9654 0 0 1 240.3462 893.6348)" class="st1 st5 st3">국제인턴십</text>
	<text transform="matrix(0.9654 0 0 1 230.0166 909.5352)" class="st1 st5 st3">쿠마모토</text>
	<text transform="matrix(0.9654 0 0 1 281.0859 909.5352)" class="st1 st4 st3">4</text>
	<text transform="matrix(0.9654 0 0 1 288.23 909.5352)" class="st1 st5 st3">개월</text>
	<g>
		<rect x="230.1" y="656.5" class="st12" width="84.4" height="45.7"/>
		<g>
			
				<radialGradient id="SVGID_3_" cx="-318.2833" cy="429.1165" r="0.6629" gradientTransform="matrix(0.8726 0 0 -0.9039 69.3279 902.9374)" gradientUnits="userSpaceOnUse">
				<stop  offset="0" style="stop-color:#000000"/>
				<stop  offset="1" style="stop-color:#FFFFFF"/>
			</radialGradient>
			<ellipse class="st13" cx="273.7" cy="683.7" rx="15.8" ry="16.4"/>
			
				<radialGradient id="SVGID_4_" cx="-318.2833" cy="429.1165" r="0.6629" gradientTransform="matrix(0.8726 0 0 -0.9039 69.3279 902.9374)" gradientUnits="userSpaceOnUse">
				<stop  offset="0" style="stop-color:#000000"/>
				<stop  offset="1" style="stop-color:#FFFFFF"/>
			</radialGradient>
			<ellipse class="st14" cx="273.3" cy="766.5" rx="9.8" ry="10.2"/>
			<ellipse class="st9" cx="269.7" cy="679.8" rx="14.6" ry="15.1"/>
			<path class="st12" d="M276.3,679.8c0-3.8-3-6.8-6.6-6.8c-3.7,0-6.6,3.1-6.6,6.8c0,3.8,3,6.8,6.6,6.8
				C273.4,686.7,276.3,683.7,276.3,679.8z"/>
			<rect x="266.8" y="689.2" class="st9" width="5" height="70.1"/>
			<ellipse class="st12" cx="269.7" cy="763.8" rx="9.5" ry="9.8"/>
		</g>
		<g>
			<text transform="matrix(0.9654 0 0 1 232.6338 795.875)" class="st15 st5 st16">영진전문대학</text>
			<text transform="matrix(0.9654 0 0 1 245.7266 646.0918)" class="st12 st2 st11">2011</text>
		</g>
	</g>
</g>
<g>
	<text transform="matrix(0.9654 0 0 1 402.042 819.6758)" class="st1 st2 st3">2014 ~ 2020</text>
	<text transform="matrix(0.9654 0 0 1 391.4219 835.5762)" class="st1 st5 st3">공연예술</text>
	<text transform="matrix(0.9654 0 0 1 442.4912 835.5762)" class="st1 st4 st3"> </text>
	<text transform="matrix(0.9654 0 0 1 446.0635 835.5762)" class="st1 st5 st3">조연출</text>
	<text transform="matrix(0.9654 0 0 1 378.582 867.2754)" class="st1 st5 st3">뮤지컬</text>
	<text transform="matrix(0.9654 0 0 1 416.9082 867.2754)" class="st1 st4 st3"> </text>
	<text transform="matrix(0.9654 0 0 1 420.4805 867.2754)" class="st1 st5 st3">그여름동물원</text>
	<text transform="matrix(0.9654 0 0 1 385.0508 883.1758)" class="st1 st5 st3">뮤지컬</text>
	<text transform="matrix(0.9654 0 0 1 423.377 883.1758)" class="st1 st4 st3"> </text>
	<text transform="matrix(0.9654 0 0 1 426.9492 883.1758)" class="st1 st5 st3">정글라이프</text>
	<text transform="matrix(0.9654 0 0 1 391.4219 899.0762)" class="st1 st5 st3">뮤지컬</text>
	<text transform="matrix(0.9654 0 0 1 429.748 899.0762)" class="st1 st4 st3"> </text>
	<text transform="matrix(0.9654 0 0 1 433.3203 899.0762)" class="st1 st5 st3">인현왕후</text>
	<g>
		<rect x="396" y="656.5" class="st17" width="84.4" height="45.7"/>
		<g>
			
				<radialGradient id="SVGID_5_" cx="-290.7558" cy="429.1171" r="0.6629" gradientTransform="matrix(0.8726 0 0 -0.9039 69.3279 902.9374)" gradientUnits="userSpaceOnUse">
				<stop  offset="0" style="stop-color:#000000"/>
				<stop  offset="1" style="stop-color:#FFFFFF"/>
			</radialGradient>
			<ellipse class="st18" cx="439.5" cy="683.7" rx="15.8" ry="16.4"/>
			
				<radialGradient id="SVGID_6_" cx="-290.7558" cy="429.1171" r="0.6629" gradientTransform="matrix(0.8726 0 0 -0.9039 69.3279 902.9374)" gradientUnits="userSpaceOnUse">
				<stop  offset="0" style="stop-color:#000000"/>
				<stop  offset="1" style="stop-color:#FFFFFF"/>
			</radialGradient>
			<ellipse class="st19" cx="439.3" cy="766.5" rx="9.8" ry="10.2"/>
			<path class="st9" d="M450.3,679.8c0-8.4-6.5-15.1-14.6-15.1s-14.6,6.7-14.6,15.1s6.5,15.1,14.6,15.1
				C443.7,694.9,450.3,688.2,450.3,679.8z"/>
			<path class="st17" d="M442.3,679.8c0-3.8-3-6.8-6.6-6.8c-3.7,0-6.6,3.1-6.6,6.8c0,3.8,3,6.8,6.6,6.8
				C439.4,686.7,442.3,683.7,442.3,679.8z"/>
			<rect x="432.8" y="689.2" class="st9" width="5" height="70.1"/>
			<ellipse class="st17" cx="435.7" cy="763.8" rx="9.5" ry="9.8"/>
		</g>
		<text transform="matrix(0.9654 0 0 1 411.7705 795.874)" class="st17 st5 st16">공연예술</text>
		<text transform="matrix(0.9654 0 0 1 414.3691 646.0918)" class="st17 st2 st11">2014</text>
	</g>
</g>
<g>
	<text transform="matrix(0.9654 0 0 1 546.6465 819.6758)" class="st1 st2 st3">2020. 12 ~ 2021.05</text>
	<text transform="matrix(0.9654 0 0 1 574.8369 835.5762)" class="st1 st5 st3">스마트</text>
	<text transform="matrix(0.9654 0 0 1 613.1631 835.5762)" class="st1 st4 st3"> </text>
	<text transform="matrix(0.9654 0 0 1 616.7354 835.5762)" class="st1 st5 st3">웹</text>
	<text transform="matrix(0.9654 0 0 1 562.0928 851.4756)" class="st1 st5 st3">콘텐츠전문가</text>
	<text transform="matrix(0.9654 0 0 1 638.7451 851.4756)" class="st1 st4 st3"> </text>
	<text transform="matrix(0.9654 0 0 1 576.96 867.2754)" class="st1 st5 st3">양성과정</text>
	<text transform="matrix(0.9654 0 0 1 570.2021 899.0762)" class="st1 st2 st3">2021. 4. 30</text>
	<text transform="matrix(0.9654 0 0 1 551.8604 914.9756)" class="st1 st5 st3">웹</text>
	<text transform="matrix(0.9654 0 0 1 564.6035 914.9756)" class="st1 st4 st3"> </text>
	<text transform="matrix(0.9654 0 0 1 568.1758 914.9756)" class="st1 st5 st3">디자인</text>
	<text transform="matrix(0.9654 0 0 1 606.502 914.9756)" class="st1 st4 st3"> </text>
	<text transform="matrix(0.9654 0 0 1 610.0742 914.9756)" class="st1 st5 st3">기능사</text>
	<text transform="matrix(0.9654 0 0 1 649.8477 914.9756)" class="st1 st2 st3"> </text>
	<g>
		<rect x="560.3" y="656.5" class="st20" width="84.4" height="45.7"/>
		<g>
			
				<radialGradient id="SVGID_7_" cx="-269.8699" cy="429.1171" r="0.6629" gradientTransform="matrix(0.8726 0 0 -0.9039 69.3279 902.9374)" gradientUnits="userSpaceOnUse">
				<stop  offset="0" style="stop-color:#000000"/>
				<stop  offset="1" style="stop-color:#FFFFFF"/>
			</radialGradient>
			<ellipse class="st21" cx="603.8" cy="683.7" rx="15.8" ry="16.4"/>
			
				<radialGradient id="SVGID_8_" cx="612.1614" cy="150.9431" r="11.2577" gradientTransform="matrix(0.8726 0 0 -0.9039 69.3279 902.9374)" gradientUnits="userSpaceOnUse">
				<stop  offset="0" style="stop-color:#000000"/>
				<stop  offset="1" style="stop-color:#FFFFFF"/>
			</radialGradient>
			<ellipse class="st22" cx="603.5" cy="766.5" rx="9.8" ry="10.2"/>
			<ellipse class="st9" cx="599.9" cy="679.8" rx="14.6" ry="15.1"/>
			<path class="st20" d="M606.5,679.8c0-3.8-3-6.8-6.6-6.8c-3.7,0-6.6,3.1-6.6,6.8c0,3.8,3,6.8,6.6,6.8
				C603.6,686.7,606.5,683.7,606.5,679.8z"/>
			<rect x="597" y="689.2" class="st9" width="5" height="70.1"/>
			<path class="st20" d="M606.6,756.9c-3.7-3.8-9.7-3.8-13.3,0c-3.7,3.8-3.7,10.1,0,13.8c3.7,3.8,9.7,3.8,13.3,0
				C610.3,767,610.3,760.7,606.6,756.9z"/>
		</g>
		<text transform="matrix(0.9654 0 0 1 556.1895 795.874)" class="st20 st5 st16">국제컴퓨터학원</text>
		<text transform="matrix(0.9654 0 0 1 575.9014 646.0918)" class="st20 st2 st11">2020</text>
	</g>
</g>
<g>
	<text transform="matrix(1.0289 0 0 1 76.7417 568.7246)" class="st1 st5 st23">컴퓨터</text>
	<text transform="matrix(1.0289 0 0 1 116.1479 568.7246)" class="st1 st4 st23"> </text>
	<text transform="matrix(1.0289 0 0 1 119.7495 568.7246)" class="st1 st5 st23">활용능력</text>
	<text transform="matrix(1.0289 0 0 1 172.2231 568.7246)" class="st1 st4 st23"> 2</text>
	<text transform="matrix(1.0289 0 0 1 183.1299 568.7246)" class="st1 st5 st23">급</text>
	<text transform="matrix(1.0289 0 0 1 99.8916 584.0244)" class="st1 st4 st23">2012.05.25</text>
	<text transform="matrix(1.0289 0 0 1 90.6313 599.3242)" class="st1 st5 st23">대한상공회의소</text>
	<g>
		<path class="st6" d="M127.3,444.5c0.5,2.1-0.7,4.3-2.9,4.8c-2.2,0.5-4.4-0.7-4.9-2.8c-0.5-2.1,0.7-4.3,2.9-4.8
			C124.6,441.1,126.8,442.3,127.3,444.5z"/>
		<path class="st6" d="M114.7,448.5c1.1,1.9,0.4,4.3-1.5,5.3c-1.9,1.1-4.4,0.4-5.5-1.5s-0.4-4.3,1.5-5.3
			C111.1,445.9,113.6,446.6,114.7,448.5z"/>
		<path class="st6" d="M103.7,455.4c1.6,1.6,1.6,4,0,5.6s-4.1,1.6-5.8,0s-1.6-4,0-5.6C99.4,454,102,454,103.7,455.4z"/>
		<path class="st6" d="M175.1,525c1.6,1.6,1.6,4,0,5.6s-4.1,1.6-5.8,0s-1.6-4,0-5.6S173.6,523.4,175.1,525z"/>
		<path class="st6" d="M94.8,465c1.9,1.1,2.6,3.5,1.5,5.3c-1.1,1.9-3.6,2.5-5.5,1.5c-1.9-1.1-2.6-3.5-1.5-5.3
			C90.4,464.5,92.8,463.8,94.8,465z"/>
		<path class="st24" d="M182.3,514.2c1.9,1.1,2.6,3.5,1.5,5.3c-1.1,1.9-3.6,2.5-5.5,1.5c-1.9-1.1-2.6-3.5-1.5-5.3
			C177.9,513.6,180.3,513.1,182.3,514.2z"/>
		<path class="st6" d="M88.7,476.4c2.2,0.5,3.4,2.7,2.9,4.8c-0.5,2.1-2.7,3.3-4.9,2.8s-3.4-2.7-2.9-4.8
			C84.3,477.2,86.5,475.8,88.7,476.4z"/>
		<path class="st24" d="M186.4,501.9c2.2,0.5,3.4,2.7,2.9,4.8c-0.5,2.1-2.7,3.3-4.9,2.8s-3.4-2.7-2.9-4.8
			C182,502.5,184.2,501.3,186.4,501.9z"/>
		<path class="st6" d="M86,489.1c2.2,0,4.1,1.7,4.1,4c0,2.1-1.8,4-4.1,4s-4.1-1.7-4.1-4C81.8,490.8,83.6,489.1,86,489.1z"/>
		<ellipse class="st24" cx="187.1" cy="492.9" rx="4.1" ry="4"/>
		<path class="st6" d="M86.7,501.9c2.2-0.5,4.4,0.7,4.9,2.8c0.5,2.1-0.7,4.3-2.9,4.8c-2.2,0.5-4.4-0.7-4.9-2.8
			C83.1,504.7,84.5,502.4,86.7,501.9z"/>
		<path class="st24" d="M184.3,476.4c2.2-0.5,4.4,0.7,4.9,2.8c0.5,2.1-0.7,4.3-2.9,4.8s-4.4-0.7-4.9-2.8
			C180.9,479.2,182.1,477,184.3,476.4z"/>
		<path class="st6" d="M90.6,514.2c1.9-1.1,4.4-0.4,5.5,1.5s0.4,4.3-1.5,5.3s-4.4,0.4-5.5-1.5S88.7,515.2,90.6,514.2z"/>
		<path class="st24" d="M178.3,465c1.9-1.1,4.4-0.4,5.5,1.5s0.4,4.3-1.5,5.3s-4.4,0.4-5.5-1.5C175.7,468.5,176.3,466.1,178.3,465z"
			/>
		<path class="st6" d="M97.9,525c1.6-1.6,4.1-1.6,5.8,0s1.6,4,0,5.6s-4.1,1.6-5.8,0C96.3,529,96.3,526.4,97.9,525z"/>
		<path class="st24" d="M169.3,455.4c1.6-1.6,4.1-1.6,5.8,0c1.6,1.6,1.6,4,0,5.6s-4.1,1.6-5.8,0C167.8,459.4,167.8,457,169.3,455.4z
			"/>
		<path class="st6" d="M107.7,533.5c1.1-1.9,3.6-2.5,5.5-1.5c1.9,1.1,2.6,3.5,1.5,5.3s-3.6,2.5-5.5,1.5
			C107.3,537.9,106.6,535.5,107.7,533.5z"/>
		<path class="st6" d="M119.5,539.4c0.5-2.1,2.7-3.3,4.9-2.8c2.2,0.5,3.4,2.7,2.9,4.8s-2.7,3.3-4.9,2.8S118.9,541.5,119.5,539.4z"/>
		<path class="st24" d="M140.6,443.8c0,2.1-1.8,4-4.1,4c-2.2,0-4.1-1.7-4.1-4s1.8-4,4.1-4C138.7,439.9,140.6,441.7,140.6,443.8z"/>
		<path class="st6" d="M140.6,542.1c0,2.1-1.8,4-4.1,4c-2.2,0-4.1-1.7-4.1-4c0-2.1,1.8-4,4.1-4C138.7,538.2,140.6,539.9,140.6,542.1
			z"/>
		<path class="st6" d="M153.5,539.4c0.5,2.1-0.7,4.3-2.9,4.8s-4.4-0.7-4.9-2.8s0.7-4.3,2.9-4.8C150.7,536.1,153,537.3,153.5,539.4z"
			/>
		<path class="st6" d="M165.4,533.5c1.1,1.9,0.4,4.3-1.5,5.3c-1.9,1.1-4.4,0.4-5.5-1.5s-0.4-4.3,1.5-5.3
			C161.6,531,164.1,531.6,165.4,533.5z"/>
		<path class="st24" d="M158.2,448.5c1.1-1.9,3.6-2.5,5.5-1.5c1.9,1.1,2.6,3.5,1.5,5.3c-1.1,1.9-3.6,2.5-5.5,1.5
			S157.1,450.4,158.2,448.5z"/>
		<path class="st24" d="M145.7,444.5c0.5-2.1,2.7-3.3,4.9-2.8s3.4,2.7,2.9,4.8c-0.5,2.1-2.7,3.3-4.9,2.8
			C146.4,448.7,145,446.6,145.7,444.5z"/>
		<g>
			<text transform="matrix(1.0289 0 0 1 108.8418 510.6592)" class="st6 st25 st26">65%</text>
			<g>
				<text transform="matrix(1.2039 0 0 1 117.2373 483.9268)" class="st1 st25 st27">Excel</text>
			</g>
		</g>
	</g>
</g>
<g>
	<path class="st24" d="M588.5,447.5c0,2.1-1.8,4-4.1,4s-4.1-1.7-4.1-4s1.8-4,4.1-4S588.5,445.3,588.5,447.5z"/>
	<path class="st28" d="M588.5,545.8c0,2.1-1.8,4-4.1,4s-4.1-1.7-4.1-4c0-2.1,1.8-4,4.1-4S588.5,543.7,588.5,545.8z"/>
	<path class="st28" d="M575.1,448.2c0.5,2.1-0.7,4.3-2.9,4.8s-4.4-0.7-4.9-2.8c-0.5-2.1,0.7-4.3,2.9-4.8
		C572.4,444.7,574.6,446.1,575.1,448.2z"/>
	<path class="st28" d="M601.4,543.1c0.5,2.1-0.7,4.3-2.9,4.8s-4.4-0.7-4.9-2.8s0.7-4.3,2.9-4.8C598.5,539.8,600.8,541,601.4,543.1z"
		/>
	<path class="st28" d="M562.5,452.1c1.1,1.9,0.4,4.3-1.5,5.3c-1.9,1.1-4.4,0.4-5.5-1.5s-0.4-4.3,1.5-5.3
		C558.9,449.5,561.4,450.2,562.5,452.1z"/>
	<path class="st28" d="M613.2,537.2c1.1,1.9,0.4,4.3-1.5,5.3c-1.9,1.1-4.4,0.4-5.5-1.5s-0.4-4.3,1.5-5.3
		C609.5,534.7,611.9,535.4,613.2,537.2z"/>
	<path class="st28" d="M551.5,459.2c1.6,1.6,1.6,4,0,5.6s-4.1,1.6-5.8,0c-1.6-1.6-1.6-4,0-5.6C547.2,457.6,549.9,457.6,551.5,459.2z
		"/>
	<path class="st24" d="M622.9,528.6c1.6,1.6,1.6,4,0,5.6s-4.1,1.6-5.8,0s-1.6-4,0-5.6C618.8,527.1,621.4,527.1,622.9,528.6z"/>
	<path class="st28" d="M542.6,468.6c1.9,1.1,2.6,3.5,1.5,5.3c-1.1,1.9-3.6,2.5-5.5,1.5c-1.9-1.1-2.6-3.5-1.5-5.3
		C538.2,468.2,540.7,467.6,542.6,468.6z"/>
	<path class="st24" d="M630.1,517.8c1.9,1.1,2.6,3.5,1.5,5.3c-1.1,1.9-3.6,2.5-5.5,1.5c-1.9-1.1-2.6-3.5-1.5-5.3
		C625.7,517.4,628.1,516.7,630.1,517.8z"/>
	<path class="st28" d="M537.8,478.9c2.2,0.5,3.4,2.7,2.9,4.8c-0.5,2.1-2.7,3.3-4.9,2.8s-3.4-2.7-2.9-4.8
		C533.4,479.6,535.6,478.4,537.8,478.9z"/>
	<path class="st24" d="M635.4,504.4c2.2,0.5,3.4,2.7,2.9,4.8c-0.5,2.1-2.7,3.3-4.9,2.8c-2.2-0.5-3.4-2.7-2.9-4.8
		S633.2,503.7,635.4,504.4z"/>
	<path class="st28" d="M533.8,492.7c2.2,0,4.1,1.7,4.1,4c0,2.1-1.8,4-4.1,4c-2.2,0-4.1-1.7-4.1-4
		C529.7,494.5,531.5,492.7,533.8,492.7z"/>
	<ellipse class="st24" cx="634.9" cy="496.7" rx="4.1" ry="4"/>
	<path class="st28" d="M534.5,505.6c2.2-0.5,4.4,0.7,4.9,2.8c0.5,2.1-0.7,4.3-2.9,4.8s-4.4-0.7-4.9-2.8
		C530.9,508.3,532.3,506.1,534.5,505.6z"/>
	<path class="st24" d="M632.1,480.1c2.2-0.5,4.4,0.7,4.9,2.8c0.5,2.1-0.7,4.3-2.9,4.8s-4.4-0.7-4.9-2.8
		C628.7,482.8,629.9,480.6,632.1,480.1z"/>
	<path class="st28" d="M538.5,517.8c1.9-1.1,4.4-0.4,5.5,1.5s0.4,4.3-1.5,5.3c-1.9,1.1-4.4,0.4-5.5-1.5
		C535.8,521.4,536.5,518.8,538.5,517.8z"/>
	<path class="st24" d="M626.1,468.6c1.9-1.1,4.4-0.4,5.5,1.5s0.4,4.3-1.5,5.3c-1.9,1.1-4.4,0.4-5.5-1.5
		C623.5,472.1,624.2,469.7,626.1,468.6z"/>
	<path class="st28" d="M545.7,528.6c1.6-1.6,4.1-1.6,5.8,0c1.6,1.6,1.6,4,0,5.6s-4.1,1.6-5.8,0C544.1,532.7,544.1,530.2,545.7,528.6
		z"/>
	<path class="st24" d="M617.2,459.2c1.6-1.6,4.1-1.6,5.8,0c1.6,1.6,1.6,4,0,5.6s-4.1,1.6-5.8,0C615.6,463.2,615.6,460.6,617.2,459.2
		z"/>
	<path class="st28" d="M555.5,537.2c1.1-1.9,3.6-2.5,5.5-1.5c1.9,1.1,2.6,3.5,1.5,5.3c-1.1,1.9-3.6,2.5-5.5,1.5
		S554.4,539.1,555.5,537.2z"/>
	<path class="st24" d="M606,452.1c1.1-1.9,3.6-2.5,5.5-1.5c1.9,1.1,2.6,3.5,1.5,5.3c-1.1,1.9-3.6,2.5-5.5,1.5
		C605.6,456.5,604.9,453.9,606,452.1z"/>
	<path class="st28" d="M567.3,543.1c0.5-2.1,2.7-3.3,4.9-2.8s3.4,2.7,2.9,4.8s-2.7,3.3-4.9,2.8C568,547.4,566.8,545.3,567.3,543.1z"
		/>
	<path class="st24" d="M593.5,448.2c0.5-2.1,2.7-3.3,4.9-2.8s3.4,2.7,2.9,4.8c-0.5,2.1-2.7,3.3-4.9,2.8S592.8,450.2,593.5,448.2z"/>
	<text transform="matrix(1.0289 0 0 1 558.498 513.9131)" class="st17 st2 st26">65%</text>
	<g>
		<text transform="matrix(1.0289 0 0 1 569.8994 477.3594)" class="st1 st5 st29">포토샵</text>
		<text transform="matrix(1.0289 0 0 1 598.708 477.3594)" class="st1 st4 st29"> </text>
		<text transform="matrix(1.0289 0 0 1 550.6709 488.5713)" class="st1 st5 st29">일러스트레이터</text>
	</g>
</g>
<g>
	<text transform="matrix(1.0289 0 0 1 266.0562 569.5098)" class="st1 st2 st23">JLPT N2</text>
	<text transform="matrix(1.0289 0 0 1 252.269 584.8096)" class="st1 st2 st23">2013. 01. 27</text>
	<text transform="matrix(1.0289 0 0 1 238.8936 600.1094)" class="st1 st5 st23">필요시</text>
	<text transform="matrix(1.0289 0 0 1 278.3003 600.1094)" class="st1 st4 st23"> </text>
	<text transform="matrix(1.0289 0 0 1 281.9014 600.1094)" class="st1 st5 st23">취득</text>
	<text transform="matrix(1.0289 0 0 1 308.1382 600.1094)" class="st1 st4 st23"> </text>
	<text transform="matrix(1.0289 0 0 1 311.7393 600.1094)" class="st1 st5 st23">가능</text>
	<g>
		<ellipse class="st24" cx="289.2" cy="444.7" rx="4.1" ry="4"/>
		<path class="st30" d="M293.3,543c0,2.1-1.8,4-4.1,4c-2.2,0-4.1-1.7-4.1-4c0-2.1,1.8-4,4.1-4C291.5,539.1,293.3,540.9,293.3,543z"
			/>
		<path class="st30" d="M280.1,445.4c0.5,2.1-0.7,4.3-2.9,4.8s-4.4-0.7-4.9-2.8c-0.5-2.1,0.7-4.3,2.9-4.8
			C277.2,442.1,279.4,443.3,280.1,445.4z"/>
		<path class="st30" d="M306.2,540.3c0.5,2.1-0.7,4.3-2.9,4.8c-2.2,0.5-4.4-0.7-4.9-2.8s0.7-4.3,2.9-4.8S305.7,538.2,306.2,540.3z"
			/>
		<path class="st30" d="M267.5,449.4c1.1,1.9,0.4,4.3-1.5,5.3c-1.9,1.1-4.4,0.4-5.5-1.5s-0.4-4.3,1.5-5.3S266.4,447.5,267.5,449.4z"
			/>
		<path class="st30" d="M318,534.4c1.1,1.9,0.4,4.3-1.5,5.3c-1.9,1.1-4.4,0.4-5.5-1.5s-0.4-4.3,1.5-5.3
			C314.5,531.9,316.9,532.6,318,534.4z"/>
		<path class="st30" d="M256.4,456.4c1.6,1.6,1.6,4,0,5.6s-4.1,1.6-5.8,0c-1.6-1.6-1.6-4,0-5.6C252.2,454.9,254.7,454.9,256.4,456.4
			z"/>
		<path class="st30" d="M327.9,525.9c1.6,1.6,1.6,4,0,5.6s-4.1,1.6-5.8,0c-1.6-1.6-1.6-4,0-5.6C323.7,524.3,326.3,524.3,327.9,525.9
			z"/>
		<path class="st30" d="M247.4,466c1.9,1.1,2.6,3.5,1.5,5.3s-3.6,2.5-5.5,1.5c-1.9-1.1-2.6-3.5-1.5-5.3
			C243,465.4,245.5,464.8,247.4,466z"/>
		<path class="st30" d="M335.1,515.1c1.9,1.1,2.6,3.5,1.5,5.3c-1.1,1.9-3.6,2.5-5.5,1.5s-2.6-3.5-1.5-5.3
			C330.7,514.6,333.1,514,335.1,515.1z"/>
		<path class="st30" d="M241.4,477.3c2.2,0.5,3.4,2.7,2.9,4.8c-0.5,2.1-2.7,3.3-4.9,2.8s-3.4-2.7-2.9-4.8
			C237,478.1,239.3,476.8,241.4,477.3z"/>
		<path class="st24" d="M339.2,502.8c2.2,0.5,3.4,2.7,2.9,4.8c-0.5,2.1-2.7,3.3-4.9,2.8c-2.2-0.5-3.4-2.7-2.9-4.8
			C334.7,503.5,337,502.3,339.2,502.8z"/>
		<ellipse class="st30" cx="238.6" cy="493.9" rx="4.1" ry="4"/>
		<path class="st24" d="M339.7,490c2.2,0,4.1,1.7,4.1,4c0,2.1-1.8,4-4.1,4c-2.2,0-4.1-1.7-4.1-4C335.8,491.7,337.5,490,339.7,490z"
			/>
		<path class="st30" d="M239.3,502.8c2.2-0.5,4.4,0.7,4.9,2.8c0.5,2.1-0.7,4.3-2.9,4.8s-4.4-0.7-4.9-2.8
			C235.9,505.6,237.1,503.3,239.3,502.8z"/>
		<path class="st24" d="M337,477.3c2.2-0.5,4.4,0.7,4.9,2.8c0.5,2.1-0.7,4.3-2.9,4.8c-2.2,0.5-4.4-0.7-4.9-2.8
			C333.6,480.1,334.8,478,337,477.3z"/>
		<path class="st30" d="M243.5,515.1c1.9-1.1,4.4-0.4,5.5,1.5s0.4,4.3-1.5,5.3c-1.9,1.1-4.4,0.4-5.5-1.5
			C240.8,518.6,241.5,516.2,243.5,515.1z"/>
		<path class="st24" d="M330.9,466c1.9-1.1,4.4-0.4,5.5,1.5s0.4,4.3-1.5,5.3c-1.9,1.1-4.4,0.4-5.5-1.5S329,467,330.9,466z"/>
		<path class="st30" d="M250.6,525.9c1.6-1.6,4.1-1.6,5.8,0c1.6,1.6,1.6,4,0,5.6s-4.1,1.6-5.8,0S248.9,527.4,250.6,525.9z"/>
		<path class="st24" d="M322.2,456.4c1.6-1.6,4.1-1.6,5.8,0c1.6,1.6,1.6,4,0,5.6s-4.1,1.6-5.8,0C320.5,460.4,320.5,458,322.2,456.4z
			"/>
		<path class="st30" d="M260.5,534.4c1.1-1.9,3.6-2.5,5.5-1.5c1.9,1.1,2.6,3.5,1.5,5.3c-1.1,1.9-3.6,2.5-5.5,1.5
			C259.9,538.9,259.2,536.4,260.5,534.4z"/>
		<path class="st24" d="M311,449.4c1.1-1.9,3.6-2.5,5.5-1.5c1.9,1.1,2.6,3.5,1.5,5.3c-1.1,1.9-3.6,2.5-5.5,1.5
			C310.5,453.7,309.9,451.3,311,449.4z"/>
		<path class="st30" d="M272.2,540.3c0.5-2.1,2.7-3.3,4.9-2.8s3.4,2.7,2.9,4.8s-2.7,3.3-4.9,2.8C273,544.6,271.6,542.5,272.2,540.3z
			"/>
		<ellipse class="st24" cx="302.3" cy="446.4" rx="4.1" ry="4"/>
	</g>
	<g>
		<text transform="matrix(1.0289 0 0 1 260.7632 511.1836)" class="st30 st2 st31">70%</text>
		<g>
			<text transform="matrix(1.0289 0 0 1 264.0391 482.0498)" class="st1 st5 st32">일본어</text>
		</g>
	</g>
</g>
<g>
	<text transform="matrix(1.0289 0 0 1 387.1973 573.1133)" class="st1 st5 st23">웹</text>
	<text transform="matrix(1.0289 0 0 1 400.3672 573.1133)" class="st1 st4 st23"> </text>
	<text transform="matrix(1.0289 0 0 1 403.9678 573.1133)" class="st1 st5 st23">디자인</text>
	<text transform="matrix(1.0289 0 0 1 443.2725 573.1133)" class="st1 st4 st23"> </text>
	<text transform="matrix(1.0289 0 0 1 446.9766 573.1133)" class="st1 st5 st23">기능사</text>
	<text transform="matrix(1.0289 0 0 1 400.1611 588.4131)" class="st1 st4 st23">2021.04.30</text>
	<g>
		<path class="st24" d="M482.6,518.7c1.9,1.1,2.6,3.5,1.5,5.3s-3.6,2.5-5.5,1.5s-2.6-3.5-1.5-5.3
			C478.2,518.3,480.7,517.6,482.6,518.7z"/>
		<path class="st24" d="M488,505.3c2.2,0.5,3.4,2.7,2.9,4.8s-2.7,3.3-4.9,2.8s-3.4-2.7-2.9-4.8S485.8,504.7,488,505.3z"/>
		<ellipse class="st24" cx="487.3" cy="497.6" rx="4.1" ry="4"/>
		<path class="st24" d="M484.6,481c2.2-0.5,4.4,0.7,4.9,2.8c0.5,2.1-0.7,4.3-2.9,4.8c-2.2,0.5-4.4-0.7-4.9-2.8
			C481.1,483.7,482.4,481.6,484.6,481z"/>
		<path class="st24" d="M478.5,469.6c1.9-1.1,4.4-0.4,5.5,1.5s0.4,4.3-1.5,5.3c-1.9,1.1-4.4,0.4-5.5-1.5S476.6,470.6,478.5,469.6z"
			/>
		<path class="st24" d="M440.9,448.5c0,2.1-1.8,4-4.1,4c-2.2,0-4.1-1.7-4.1-4s1.8-4,4.1-4S440.9,446.2,440.9,448.5z"/>
		<path class="st24" d="M440.9,546.7c0,2.1-1.8,4-4.1,4c-2.2,0-4.1-1.7-4.1-4c0-2.1,1.8-4,4.1-4S440.9,544.6,440.9,546.7z"/>
		<path class="st17" d="M427.7,449.1c0.5,2.1-0.7,4.3-2.9,4.8c-2.2,0.5-4.4-0.7-4.9-2.8c-0.5-2.1,0.7-4.3,2.9-4.8
			C424.8,445.7,427,447,427.7,449.1z"/>
		<path class="st24" d="M453.8,544.1c0.5,2.1-0.7,4.3-2.9,4.8c-2.2,0.5-4.4-0.7-4.9-2.8s0.7-4.3,2.9-4.8
			C451,540.7,453.2,541.9,453.8,544.1z"/>
		<path class="st17" d="M415.1,453c1.1,1.9,0.4,4.3-1.5,5.3s-4.4,0.4-5.5-1.5s-0.4-4.3,1.5-5.3S414,451.1,415.1,453z"/>
		<path class="st24" d="M465.6,538.2c1.1,1.9,0.4,4.3-1.5,5.3c-1.9,1.1-4.4,0.4-5.5-1.5s-0.4-4.3,1.5-5.3
			C462,535.6,464.5,536.3,465.6,538.2z"/>
		<path class="st17" d="M403.9,460.1c1.6,1.6,1.6,4,0,5.6s-4.1,1.6-5.8,0s-1.6-4,0-5.6C399.8,458.5,402.3,458.5,403.9,460.1z"/>
		<path class="st24" d="M475.5,529.5c1.6,1.6,1.6,4,0,5.6s-4.1,1.6-5.8,0s-1.6-4,0-5.6C471.2,528,473.8,528,475.5,529.5z"/>
		<path class="st17" d="M395,469.6c1.9,1.1,2.6,3.5,1.5,5.3c-1.1,1.9-3.6,2.5-5.5,1.5c-1.9-1.1-2.6-3.5-1.5-5.3
			C390.6,469.2,393.1,468.5,395,469.6z"/>
		<path class="st17" d="M390.3,479.8c2.2,0.5,3.4,2.7,2.9,4.8c-0.5,2.1-2.7,3.3-4.9,2.8c-2.2-0.5-3.4-2.7-2.9-4.8
			C385.8,480.5,388.1,479.3,390.3,479.8z"/>
		<path class="st17" d="M386.2,493.6c2.2,0,4.1,1.7,4.1,4c0,2.1-1.8,4-4.1,4c-2.2,0-4.1-1.7-4.1-4
			C382.2,495.5,384,493.6,386.2,493.6z"/>
		<path class="st17" d="M386.9,506.5c2.2-0.5,4.4,0.7,4.9,2.8c0.5,2.1-0.7,4.3-2.9,4.8c-2.2,0.5-4.4-0.7-4.9-2.8
			S384.7,507.1,386.9,506.5z"/>
		<path class="st17" d="M391,518.7c1.9-1.1,4.4-0.4,5.5,1.5s0.4,4.3-1.5,5.3s-4.4,0.4-5.5-1.5C388.4,522.3,389.1,519.8,391,518.7z"
			/>
		<path class="st17" d="M398.2,529.5c1.6-1.6,4.1-1.6,5.8,0s1.6,4,0,5.6s-4.1,1.6-5.8,0C396.5,533.6,396.5,531.1,398.2,529.5z"/>
		<path class="st24" d="M469.7,460.1c1.6-1.6,4.1-1.6,5.8,0c1.6,1.6,1.6,4,0,5.6s-4.1,1.6-5.8,0S468.1,461.6,469.7,460.1z"/>
		<path class="st17" d="M408.1,538.2c1.1-1.9,3.6-2.5,5.5-1.5c1.9,1.1,2.6,3.5,1.5,5.3c-1.1,1.9-3.6,2.5-5.5,1.5
			C407.5,542.4,406.8,540,408.1,538.2z"/>
		<path class="st24" d="M458.6,453c1.1-1.9,3.6-2.5,5.5-1.5c1.9,1.1,2.6,3.5,1.5,5.3c-1.1,1.9-3.6,2.5-5.5,1.5
			C458.1,457.4,457.5,454.9,458.6,453z"/>
		<path class="st17" d="M419.7,544.1c0.5-2.1,2.7-3.3,4.9-2.8c2.2,0.5,3.4,2.7,2.9,4.8s-2.7,3.3-4.9,2.8
			C420.6,548.3,419.2,546.2,419.7,544.1z"/>
		<path class="st24" d="M446,449.1c0.5-2.1,2.7-3.3,4.9-2.8c2.2,0.5,3.4,2.7,2.9,4.8c-0.5,2.1-2.7,3.3-4.9,2.8
			S445.4,451.1,446,449.1z"/>
		<text transform="matrix(1.0289 0 0 1 412.2344 517.5156)" class="st17 st2 st26">70%</text>
		<g>
			<text transform="matrix(1.0289 0 0 1 423.7666 473.582)" class="st1 st4 st33">HTML</text>
			<text transform="matrix(1.0289 0 0 1 428.4346 483.1953)" class="st1 st4 st33">CSS</text>
			<text transform="matrix(1.0289 0 0 1 425.1406 492.8037)" class="st1 st4 st33">JAVA</text>
		</g>
	</g>
</g>
<radialGradient id="SVGID_9_" cx="-378.8938" cy="662.5472" r="1.0016" gradientTransform="matrix(1 0 0 -1 0 934)" gradientUnits="userSpaceOnUse">
	<stop  offset="0" style="stop-color:#000000"/>
	<stop  offset="1" style="stop-color:#FFFFFF"/>
</radialGradient>
<path class="st34" d="M493.5,140.4c-23.8-23.8-56.7-38.5-93.2-38.5s-69.3,14.8-93.2,38.5c-23.8,23.8-38.5,56.7-38.5,93.2
	s14.8,69.3,38.5,93.2c23.8,23.8,56.7,38.5,93.2,38.5s69.3-14.8,93.2-38.5c23.8-23.8,38.5-56.7,38.5-93.2S517.4,164.3,493.5,140.4z
	 M400.6,233.6L400.6,233.6L400.6,233.6L400.6,233.6z"/>
<ellipse transform="matrix(0.7071 -0.7071 0.7071 0.7071 -49.4026 287.1438)" class="st20" cx="321.9" cy="203.2" rx="83.9" ry="83.9"/>
<path class="st30" d="M419.6,346.2c-27.2,37.5-79.7,45.7-117.2,18.6c-30.2-22-41.5-60.3-30.4-94.2c2.6-8,6.6-15.8,11.8-23
	C311,210.2,363.5,201.9,401,229c0.2,0.2,0.2,0.2,0.4,0.4C438.6,256.6,446.7,308.9,419.6,346.2z"/>
<circle class="st6" cx="450.3" cy="297.5" r="83.9"/>
<ellipse class="st12" cx="481.1" cy="204" rx="83.9" ry="83.9"/>
<circle class="st17" cx="401.8" cy="145.6" r="83.9"/>
<path class="st17" d="M401.6,229c0,0.2-0.2,0.4-0.2,0.6c-46.1-0.2-83.5-37.7-83.5-83.7c0-9.2,1.4-18.2,4.2-26.4
	c8.4,0,17,1.4,25.6,4.2C391.8,137.6,416,184.9,401.6,229z"/>
<path class="st20" d="M401.6,229c0,0.2-0.2,0.4-0.2,0.6c-46.1-0.2-83.5-37.7-83.5-83.7c0-9.2,1.4-18.2,4.2-26.4
	c8.4,0,17,1.4,25.6,4.2C391.8,137.6,416,184.9,401.6,229z"/>
<radialGradient id="SVGID_10_" cx="-338.8284" cy="620.4786" r="1.0016" gradientTransform="matrix(1 0 0 -1 0 934)" gradientUnits="userSpaceOnUse">
	<stop  offset="0" style="stop-color:#000000"/>
	<stop  offset="1" style="stop-color:#FFFFFF"/>
</radialGradient>
<path class="st35" d="M467.9,188.3c-13.2-13.2-31.5-21.4-51.7-21.4s-38.5,8.2-51.7,21.4s-21.4,31.5-21.4,51.7s8.2,38.5,21.4,51.7
	c13.2,13.2,31.5,21.4,51.7,21.4s38.5-8.2,51.7-21.4c13.2-13.2,21.4-31.5,21.4-51.7S481.1,201.5,467.9,188.3z M416,240.2L416,240.2
	L416,240.2L416,240.2z"/>
<polygon class="st17" points="422.8,76.5 404.6,43.9 386.6,76.5 "/>
<polygon class="st20" points="258.1,159.1 221.5,166.3 246.9,193.7 "/>
<polygon class="st30" points="293.8,347.2 289.2,384.4 323.3,368.6 "/>
<polygon class="st6" points="469.1,372.6 502.9,388.2 498.5,351.2 "/>
<polygon class="st12" points="555.8,200.1 581.3,172.7 544.6,165.5 "/>
<g>
	<rect x="303" y="41.1" class="st36" width="82.1" height="41.3"/>
	<text transform="matrix(1 0 0 1 302.9668 50.0723)" class="st1 st2 st37">1987. 12. 24</text>
	<text transform="matrix(1 0 0 1 302.9668 65.2959)" class="st1 st5 st37">염소자리</text>
	<text transform="matrix(1 0 0 1 353.6494 65.2959)" class="st1 st2 st37"> .</text>
</g>
<g>
	<rect x="121" y="131.2" class="st36" width="106.4" height="41.1"/>
	<text transform="matrix(1 0 0 1 121.0156 142.5547)" class="st1 st2 st38">miko0324@naver.com</text>
</g>
<g>
	<rect x="187.2" y="312.1" class="st36" width="82.1" height="86.5"/>
	<text transform="matrix(1 0 0 1 187.2129 319.4941)" class="st1 st5 st39">웹</text>
	<text transform="matrix(1 0 0 1 197.2129 319.4941)" class="st1 st4 st39"> </text>
	<text transform="matrix(1 0 0 1 200.0129 319.4941)" class="st1 st5 st39">디자인</text>
	<text transform="matrix(1 0 0 1 230.0129 319.4941)" class="st1 st4 st39"> </text>
	<text transform="matrix(1 0 0 1 232.8129 319.4941)" class="st1 st5 st39">기능사</text>
	<text transform="matrix(1 0 0 1 262.9129 319.4941)" class="st1 st4 st39"> </text>
	<text transform="matrix(1 0 0 1 187.2129 331.5146)" class="st1 st4 st39">21.4.30</text>
	<text transform="matrix(1 0 0 1 187.2129 343.5352)" class="st1 st5 st39">컴퓨터활용능력</text>
	<text transform="matrix(1 0 0 1 257.3129 343.5352)" class="st1 st4 st39"> 2</text>
	<text transform="matrix(1 0 0 1 187.2129 355.5508)" class="st1 st5 st39">급</text>
	<text transform="matrix(1 0 0 1 187.2129 367.5703)" class="st1 st4 st39">12.05.25</text>
	<text transform="matrix(1 0 0 1 187.2129 379.5918)" class="st1 st4 st39">JLPT N2</text>
	<text transform="matrix(1 0 0 1 187.2129 391.6104)" class="st1 st4 st39">12.1.27</text>
</g>
<text transform="matrix(1 0 0 1 523.8418 354.2959)" class="st1 st4 st38">1. </text>
<text transform="matrix(1 0 0 1 538.1418 354.2959)" class="st1 st5 st38">사진찍기</text>
<text transform="matrix(1 0 0 1 523.8418 369.6959)" class="st1 st4 st38">2. </text>
<text transform="matrix(1 0 0 1 538.1418 369.6959)" class="st1 st5 st38">악세사리</text>
<text transform="matrix(1 0 0 1 589.4418 369.6959)" class="st1 st4 st38"> </text>
<text transform="matrix(1 0 0 1 593.0418 369.6959)" class="st1 st5 st38">만들기</text>
<text transform="matrix(1 0 0 1 523.8418 385.0959)" class="st1 st4 st38">3. </text>
<text transform="matrix(1 0 0 1 538.1418 385.0959)" class="st1 st5 st38">공연관람</text>
<text transform="matrix(1 0 0 1 523.8418 400.4959)" class="st1 st4 st38">4. </text>
<text transform="matrix(1 0 0 1 538.1418 400.4959)" class="st1 st5 st38">혼자여행</text>
<g>
	<rect x="590.9" y="174.5" class="st36" width="82.1" height="41.3"/>
	<text transform="matrix(1 0 0 1 590.9102 192.9873)" class="st1 st2 st40">O</text>
	<text transform="matrix(1 0 0 1 608.3379 192.9873)" class="st1 st5 st40">형</text>
</g>
<g>
	<text transform="matrix(1 0 0 1 159.1338 171.8164)" class="st1 st2 st41">E-mail</text>
</g>
<g>
	<text transform="matrix(1 0 0 1 237.7412 412.4951)" class="st1 st4 st42">Process</text>
</g>
<g>
	<text transform="matrix(1 0 0 1 453.3838 413.7578)" class="st1 st2 st42">Hobby</text>
</g>
<g>
	<text transform="matrix(1 0 0 1 588.0947 164.21)" class="st1 st2 st41">Blood type</text>
</g>
<g>
	<text transform="matrix(1 0 0 1 371.2402 36.457)" class="st1 st2 st41">Birthday</text>
</g>
<g>
	<text transform="matrix(1 0 0 1 377.3369 297.4912)" class="st1 st2 st43">INFOGRAPHIC</text>
</g>
<g>
	<g>
		<path class="st44" d="M337.5,325.2h-12.8c-0.6,0-1.2,0.6-1.2,1.2s0.6,1.2,1.2,1.2h12.8c0.6,0,1.2-0.6,1.2-1.2
			C338.7,325.8,338.1,325.2,337.5,325.2z"/>
	</g>
	<g>
		<path class="st44" d="M335.5,328.6h-9.2c-0.6,0-1.2,0.6-1.2,1.2s0.6,1.2,1.2,1.2h9.2c0.6,0,1.2-0.6,1.2-1.2
			C336.7,329,336.1,328.6,335.5,328.6z"/>
	</g>
	<path class="st44" d="M340.9,294.7c-3-2.8-7.2-4-11.4-3.6c-6.6,0.8-12,6-12.8,12.4c-0.6,4.8,1,9.4,4.6,12.6c1.8,1.8,2.6,3.2,2.6,5
		v0.4c0,0.6,0.6,1.2,1.2,1.2h12.2c0.6,0,1.2-0.6,1.2-1.2v-0.4c0-2,0.8-3.4,2.6-5c3-2.8,4.6-6.6,4.6-10.6
		C345.7,301.4,344.1,297.3,340.9,294.7z M337.5,304l-7,7c-0.8,0.8-2,0.8-2.8,0l-2.6-2.6c-1.2-1.2-0.4-3,1.2-3c0.4,0,1,0.2,1.2,0.6
		l1.4,1.4c0.2,0.2,0.6,0.2,0.8,0l5.8-5.2c0.2-0.2,0.6-0.4,1-0.4C337.7,301.6,338.3,303,337.5,304z"/>
</g>
<g>
	<rect x="396" y="108.4" class="st45" width="27" height="12.4"/>
	<rect x="390" y="119.2" class="st45" width="39.3" height="15"/>
	<rect x="401.6" y="99.8" class="st45" width="0.8" height="10.8"/>
	<rect x="405.8" y="99.8" class="st45" width="0.8" height="10.8"/>
	<rect x="411.6" y="99.8" class="st45" width="0.8" height="10.8"/>
	<rect x="415.6" y="99.8" class="st45" width="0.8" height="10.8"/>
	<path class="st45" d="M402.6,99c0,0.8-0.2,1.8-0.6,1.8s-0.6-1-0.6-1.8s0.4-1.4,0.6-1.8C402.2,97.6,402.6,98.2,402.6,99z"/>
	<path class="st45" d="M406.6,99c0,0.8-0.2,1.8-0.6,1.8s-0.6-1-0.6-1.8s0.4-1.4,0.6-1.8C406.2,97.6,406.6,98.2,406.6,99z"/>
	<path class="st45" d="M412.6,99c0,0.8-0.2,1.8-0.6,1.8s-0.6-1-0.6-1.8s0.4-1.4,0.6-1.8C412.2,97.6,412.4,98.2,412.6,99z"/>
	<path class="st45" d="M416.6,99c0,0.8-0.2,1.8-0.6,1.8s-0.6-1-0.6-1.8s0.4-1.4,0.6-1.8C416.2,97.6,416.6,98.2,416.6,99z"/>
</g>
<path class="st46" d="M520.2,209.8c-1,8.8-6.4,20-12.4,20s-11.4-11.2-12.4-20c-1.6-14.6,8.8-25.8,12.4-29.4
	C511.4,183.9,521.8,195.1,520.2,209.8z"/>
<polygon class="st36" points="201.9,354.2 183.6,354.2 183.6,354.2 "/>
<g>
	<rect x="273.5" y="181.5" class="st47" width="38.9" height="25.7"/>
	<polygon class="st48" points="292.8,206.1 273.5,181.9 312.2,181.9 	"/>
</g>
<polygon class="st49" points="462.8,341 475,347.4 472.7,333.7 482.6,324.1 468.9,322.1 462.8,309.7 456.6,322.1 442.9,324.1 
	452.8,333.7 450.5,347.4 "/>
<text transform="matrix(1 0 0 1 30.3618 32.6172)" class="st46 st50 st51">작은기회로부터</text>
<text transform="matrix(1 0 0 1 30.3618 193.6172)" class="st46 st50 st52"> </text>
<text transform="matrix(1 0 0 1 30.3618 198.8172)" class="st46 st50 st51">위대한</text>
<text transform="matrix(1 0 0 1 30.3618 267.8172)" class="st46 st50 st52"> </text>
<text transform="matrix(1 0 0 1 30.3618 272.9172)" class="st46 st50 st51">업적이</text>
<text transform="matrix(1 0 0 1 30.3618 341.9172)" class="st46 st50 st52"> </text>
<text transform="matrix(1 0 0 1 30.3618 347.1172)" class="st46 st50 st51">시작된다</text>
<image style="overflow:visible;enable-background:new    ;" width="1920" height="2560" xlink:href="../../../../KakaoTalk_20210506_212747166.png"  transform="matrix(4.732011e-02 0 0 4.748224e-02 368.1454 160)">
</image>
</svg>
